<?xml version="1.0" standalone="no"?>
<!DOCTYPE svg PUBLIC "-//W3C//DTD SVG 1.1//EN" "http://www.w3.org/Graphics/SVG/1.1/DTD/svg11.dtd" >
<svg xmlns="http://www.w3.org/2000/svg">
<metadata></metadata>
<defs>
<font id="ptilwideregular" horiz-adv-x="782" >
<font-face units-per-em="2048" ascent="1638" descent="-410" />
<missing-glyph horiz-adv-x="946" />
<glyph horiz-adv-x="0" />
<glyph unicode="&#xd;" horiz-adv-x="2048" />
<glyph horiz-adv-x="0" />
<glyph horiz-adv-x="0" />
<glyph unicode=" "  horiz-adv-x="946" />
<glyph unicode="&#x09;" horiz-adv-x="946" />
<glyph unicode="&#xa0;" horiz-adv-x="946" />
<glyph unicode="!" horiz-adv-x="221" d="M61 43q0 17 12.5 28t28.5 11t27.5 -11t11.5 -28t-12 -29t-27 -12q-17 0 -29 12t-12 29zM90 713q16 368 16 653q0 12 9.5 17t18.5 0t9 -17q0 -289 -16 -653q-2 -54 5.5 -139t11 -138t-8.5 -139q-2 -12 -12 -15t-18.5 3.5t-6.5 17.5q12 84 8.5 136.5t-11 136.5t-5.5 137z " />
<glyph unicode="&#x22;" horiz-adv-x="311" d="M53 1335q0 119 7.5 192t7.5 95q0 12 9 17t18 0t9 -17q0 -22 -7 -95t-7 -192q0 -12 -9 -17t-18.5 0t-9.5 17zM211 1620q-1 12 8 17.5t18.5 1t10.5 -16.5q3 -48 1 -144.5t1 -144.5q1 -12 -8 -17.5t-18.5 -1t-10.5 16.5q-2 44 -0.5 144.5t-1.5 144.5z" />
<glyph unicode="#" horiz-adv-x="1040" d="M55 426.5q-5 7.5 0.5 15.5t18.5 9q93 8 211 8q15 85 39 166q21 74 60 212.5t50 178.5q-119 -3 -239 0q-14 0 -19.5 8t0 15.5t19.5 7.5q82 -4 247 0q10 39 31 116.5t31 116.5q2 8 13 10t20.5 -4t7.5 -14q-6 -24 -60 -225h115h143q10 39 31 116.5t31 116.5q2 8 13 10 t20.5 -4t7.5 -14l-60 -228q130 -7 203 -26q19 -4 15 -18q-4 -16 -25 -11q-85 22 -201 25q-87 -313 -112 -398q-9 -31 -39 -157q120 -3 241 -15q18 -2 17 -14q-2 -14 -20 -16h-7q-104 11 -235 14q-2 -10 -12 -61t-13 -67t-12.5 -59.5t-16 -66.5t-16 -58.5t-20.5 -65.5 t-23 -60q-4 -9 -16 -10t-21 4t-6 14q17 40 31.5 80.5t27.5 93.5t18.5 79t19 94.5t16.5 82.5q-39 2 -119 2h-139q-5 -26 -17 -86t-19.5 -93.5t-20 -83.5t-27 -93t-31.5 -84q-5 -14 -27 -9q-18 5 -14 17q17 40 31.5 80.5t27.5 94.5t18.5 78t19.5 95t16 82q-114 0 -205 -8 q-14 -1 -19 6.5zM328 461h147q37 -2 111 -2q15 85 39 166q81 282 110 391q-51 2 -149 2q-18 0 -54 -1t-55 -1q-98 -352 -112 -400q-19 -62 -37 -155z" />
<glyph unicode="$" horiz-adv-x="1015" d="M49 258q0 12 9.5 17t18.5 0t9 -17q0 -90 105 -153.5t274 -63.5q111 0 191.5 15t125 37.5t70.5 57t33.5 65.5t7.5 71q0 93 -54.5 163t-203.5 132q-30 8 -150 59.5t-180 79.5q-48 21 -75.5 36.5t-62 41.5t-53 60t-22.5 77q-2 14 -2 84q0 52 10 91t37.5 75.5t74.5 60.5 t123.5 39t182.5 17q-5 19 -5.5 52.5t1.5 75t2 52.5q0 12 9 17t18.5 0t9.5 -17q0 -7 -2 -51.5t-1 -78t7 -50.5q67 0 137.5 -14t133.5 -40.5t103 -71.5t40 -100q0 -12 -9.5 -17t-18.5 0t-9 17q0 55 -57.5 99.5t-143.5 67t-178 22.5q-112 0 -191.5 -13t-125 -33.5t-71 -54.5 t-33 -66.5t-7.5 -78.5q0 -8 -0.5 -28t-0.5 -28.5t1.5 -25t5 -27t10 -24t15.5 -25.5q27 -39 114.5 -85.5t220.5 -100.5t142 -58q2 0 5 -1t5 -1l2 -2q83 -27 140.5 -63.5t87.5 -80t42.5 -87.5t12.5 -96q0 -43 -8.5 -78.5t-33 -71.5t-65.5 -62t-109.5 -44.5t-160.5 -24.5 q0 -6 -2 -56t-1 -88t7 -55q5 -11 -2 -18.5t-17.5 -6t-15.5 12.5q-13 36 -6 209h-51q-177 0 -296.5 70.5t-119.5 183.5z" />
<glyph unicode="%" horiz-adv-x="864" d="M37 74q22 27 42 55.5t41 62t34 55.5t36.5 63t32.5 57q48 87 92 153q17 24 51.5 72t51.5 72q15 23 80 133.5t106 167.5q20 27 63.5 79.5t75 96t50.5 86.5q4 6 12.5 6t15.5 -6.5t4 -14.5q-20 -42 -53 -87.5t-76 -97t-65 -83.5q-33 -49 -93.5 -150.5t-93.5 -150.5 q-17 -25 -54 -75t-54 -76q-33 -54 -84 -146q-4 -8 -26.5 -47t-29.5 -51.5t-27 -45t-32 -50.5t-30.5 -43.5t-36.5 -47.5q-9 -11 -28 -1q-9 7 -5 14zM170 1077q-34 42 2 90q37 47 103.5 86t138.5 56q4 2 12 2q4 0 6 -2q115 -29 114 -99q0 -59 -74 -116q-85 -62 -175 -64 q-36 0 -72.5 12.5t-54.5 34.5zM193 1100q10 -21 40 -34t60 -11q71 2 147 56q75 52 74 102q-1 49 -86 71q-116 -26 -203 -106q-49 -49 -32 -78zM358 133q31 49 92.5 91.5t133.5 64.5h4q8 3 14 0q119 -24 121 -98q3 -60 -69 -122q-75 -64 -160 -69q-36 -2 -73.5 9.5 t-58.5 33.5q-36 39 -4 90zM378.5 83.5q0.5 -10.5 6.5 -20.5q13 -19 43.5 -29.5t60.5 -8.5q70 7 138 64q69 58 62 108q-7 49 -93 67q-55 -17 -105.5 -50t-82.5 -71q-9 -12 -14 -19t-10.5 -18.5t-5 -22z" />
<glyph unicode="&#x26;" horiz-adv-x="872" d="M66 338q12 116 56.5 223.5t123.5 247.5v2q-6 17 -27.5 84.5t-38.5 101.5q-48 107 -63 156v10q-8 76 45 107q52 31 129 16q84 -16 100 -59q10 -24 13 -50t-2.5 -56t-11.5 -50t-17 -53q-21 -85 -88 -211q14 -39 41 -84.5t47.5 -74t61.5 -82.5t54 -72q14 -21 43 -62.5 t43 -62.5q24 66 48 116q5 8 13 8t14.5 -7t2.5 -15q-25 -49 -55 -137q37 -55 96 -152q2 -3 26 -42t36 -60q2 -3 12 -23t19 -32t20 -17q9 -6 9 -13.5t-8 -12.5t-17 0q-27 14 -58 69q-11 19 -32 56t-33 55q-65 103 -84 133q-60 -156 -131 -221q0 -7 -9 -13q-50 -27 -99 -40.5 t-104 -6t-94 46.5q-96 96 -81 277zM113 412q-45 -185 32 -297q47 -69 113 -72q73 -5 156 39q52 48 84.5 107t62.5 141q-49 74 -102 147q-16 22 -66.5 87t-81.5 112t-49 92q-6 -10 -18.5 -29.5t-18.5 -29.5q-28 -45 -51 -101t-32.5 -90t-28.5 -106zM156 1147 q10 -30 33.5 -82.5t31.5 -71.5q12 -28 27.5 -80.5t19.5 -62.5q36 69 74 180q1 2 6 19t6.5 21.5t6 20t5.5 22t3.5 20t2 22t-1 19.5t-3.5 20t-7 18q-17 32 -75 43q-63 12 -99 -8q-47 -23 -30 -94v-6z" />
<glyph unicode="'" horiz-adv-x="204" d="M88 1620q-1 12 8 17.5t18.5 1t10.5 -16.5q3 -48 1 -144.5t1 -144.5q1 -12 -8 -17.5t-18.5 -1t-10.5 16.5q-2 44 -0.5 144.5t-1.5 144.5z" />
<glyph unicode="(" horiz-adv-x="579" d="M14 487q-53 413 72 738q11 30 27.5 59.5t30.5 52t39.5 49t39.5 42t48 40.5t46.5 35t53 35.5t50.5 31.5t56 33t53 31q11 7 21.5 0t10.5 -17.5t-11 -17.5q-21 -12 -82.5 -47t-102.5 -61.5t-77 -56.5q-123 -103 -178 -265q-104 -311 -52 -696q43 -317 119 -496 q117 -290 338 -346q13 -3 15 -14.5t-6 -20.5t-21 -6q-12 5 -29 9q-221 76 -334 356q-85 200 -127 532z" />
<glyph unicode=")" horiz-adv-x="608" d="M21 1616q0 11 9.5 18t20.5 0q28 -14 37 -20q5 -3 36 -20.5t40 -22.5t35 -20.5t39 -24.5t33.5 -23t37 -27.5t31.5 -27.5q121 -110 172 -266q106 -323 51 -725q-9 -68 -18 -123t-24.5 -129.5t-35 -135t-46 -127.5t-62 -120.5t-78.5 -101t-99.5 -81t-121.5 -49.5 q-13 -3 -21 6t-6 20.5t15 14.5q228 59 342 357q82 208 116 499q51 397 -57 697q-58 159 -184 256q-19 15 -41 30t-39 26t-44 27.5t-40.5 24t-45.5 25.5t-42 24q-10 8 -10 19z" />
<glyph unicode="*" horiz-adv-x="550" d="M33 955.5q0 10.5 10 17.5q42 22 123.5 60.5t91.5 43.5q-75 61 -141 86q-11 5 -13 16.5t5.5 20t19.5 4.5q81 -36 154 -96q4 53 4 160q0 20 20.5 19.5t20.5 -19.5q0 -105 -4 -156q85 45 139 80q11 7 20.5 0.5t9.5 -17t-10 -18.5q-61 -41 -153 -88q93 -85 143 -121 q16 -11 5 -30q-11 -16 -25 -5q-55 39 -138 115q-6 -80 -22 -170q-2 -13 -13 -15t-20.5 5.5t-7.5 19.5q14 81 24 174q-178 -87 -213 -106q-11 -6 -20.5 1.5t-9.5 18z" />
<glyph unicode="+" horiz-adv-x="675" d="M35 750q-2 20 14 22h6q98 -12 244 -12q-4 170 2 254q0 13 11 18t22 0t10 -18q-5 -112 -2 -252q270 6 272 6q20 0 20 -21.5t-20 -21.5l-270 -6q12 -230 12 -340q0 -14 -11 -19t-21.5 0.5t-10.5 18.5q0 50 -2 106.5t-5.5 125t-4.5 106.5q-137 -3 -246 10q-19 3 -20 23z" />
<glyph unicode="," horiz-adv-x="126" d="M27 -141q-1 24 9.5 62t8.5 63q-1 12 8 17.5t18.5 1t10.5 -16.5q2 -26 -9 -64t-10 -63q1 -12 -7.5 -17t-18 0t-10.5 17z" />
<glyph unicode="-" horiz-adv-x="675" d="M35 607q-2 20 14 22h6q124 -15 287 -11q22 0 120.5 3.5t151.5 3.5q20 0 20 -21.5t-20 -21.5q-52 0 -149.5 -3t-120.5 -4q-179 -4 -289 9q-19 3 -20 23z" />
<glyph unicode="." horiz-adv-x="96" d="M29 18v15q0 12 9.5 17t18.5 0t9 -17v-15q0 -12 -9 -17t-18.5 0t-9.5 17z" />
<glyph unicode="/" horiz-adv-x="1026" d="M74 0q65 110 198 307q23 34 71.5 99.5t70.5 99.5q35 52 124.5 198t143.5 222q30 42 86 112t100 130.5t74 119.5q4 8 13 8.5t15.5 -6t2.5 -14.5q-30 -59 -74 -120.5t-101.5 -133.5t-86.5 -113q-53 -75 -142.5 -218.5t-126.5 -198.5q-23 -34 -71 -100.5t-70 -100.5 q-154 -229 -197 -305q-6 -7 -14.5 -7t-14.5 6.5t-1 14.5z" />
<glyph unicode="0" horiz-adv-x="1265" d="M86 319q0 5 6 158q10 169 -2 506q-2 48 2 86.5t16.5 80t41 73t71.5 49.5q45 18 406.5 22.5t404.5 -2.5q61 -7 98 -24q19 -7 31.5 -20.5t17 -24t9.5 -29.5q15 -58 20 -127.5t3.5 -118t-7 -132t-6.5 -120.5q-2 -52 -5 -156.5t-5 -156.5q-2 -33 -0.5 -107.5t-1.5 -107.5 q-4 -97 -72 -131q-31 -15 -242 -29t-297 -14q-54 0 -208 17t-191 32q-26 11 -44 37.5t-26.5 53.5t-13.5 67.5t-5.5 62t-0.5 55.5zM123 319q0 -82 14 -151q7 -38 17.5 -58.5t35.5 -31.5q32 -14 182.5 -30.5t202.5 -16.5q75 0 286 13.5t237 25.5q47 22 51 100q3 38 1.5 107.5 t0.5 107.5q2 52 5 155.5t5 155.5q1 36 6.5 118.5t7 130t-3.5 116t-20 123.5q-5 24 -11 34t-24 17q-37 14 -86 20q-47 7 -402.5 3t-394.5 -21q-24 -10 -42.5 -26.5t-30 -33t-19 -44t-11 -46t-3.5 -52.5t0.5 -49.5t3 -51.5t2.5 -45q7 -230 -4 -414q-6 -153 -6 -156z" />
<glyph unicode="1" horiz-adv-x="647" d="M34 1232.5q-5 9.5 0 18.5t17 9q60 0 261.5 -3.5t246.5 -7.5q16 0 16 -20q-12 -102 1 -293.5t8 -276.5q-17 -313 -2 -643q1 -12 -8 -17.5t-18 -1t-9 16.5q-19 332 2 648q5 86 -7.5 270.5t-4.5 281.5q-230 9 -486 9q-12 0 -17 9.5z" />
<glyph unicode="2" horiz-adv-x="1445" d="M64.5 1184.5q-2.5 8.5 5.5 17.5q58 58 224.5 88.5t346.5 30t339.5 -20.5t211.5 -53q102 -65 135.5 -167t11.5 -216q-8 -42 -34 -84t-69.5 -81.5t-91.5 -75t-115 -73.5t-124 -67.5t-133 -66.5q-13 -6 -90.5 -43t-116.5 -56.5t-113.5 -59t-120 -68t-95 -65.5t-76.5 -69 q76 1 371.5 -2t544.5 -3t313 7q12 2 18 -6.5t2 -18.5t-16 -12q-57 -10 -635 -5.5t-635 1.5q-14 0 -19 9t2 20q36 58 119.5 119t187 115t221.5 110.5t230.5 114t207 115t158 123t75.5 130.5q19 104 -12 195.5t-122 149.5q-65 42 -296 60t-471 -7.5t-308 -93.5q-9 -8 -19 -4 t-12.5 12.5z" />
<glyph unicode="3" horiz-adv-x="1181" d="M19.5 1278q1.5 10 13.5 14q169 60 409 51.5t418 -77.5q90 -35 150 -83t85 -100t31.5 -110t-10.5 -113q-18 -72 -115.5 -148.5t-218.5 -121.5q106 -37 196.5 -99t108.5 -122q23 -84 0.5 -147.5t-76 -110t-131.5 -76.5t-167.5 -46t-184 -19t-179.5 4t-156 24t-113 41 q-10 7 -10.5 16.5t8.5 16t18 0.5q37 -21 103 -36.5t146.5 -23t169.5 -5t174.5 14.5t160 39.5t126.5 66.5t73.5 98.5t1.5 131.5q-14 56 -118 120t-216 95q-17 5 -17 18t17 17q125 34 235 113t129 149q59 247 -233 361q-173 67 -406.5 76t-396.5 -50q-11 -4 -19 3.5t-6.5 17.5 z" />
<glyph unicode="4" horiz-adv-x="1232" d="M43 319q2 74 30 150.5t71 143.5t94.5 134.5t103.5 134t95.5 132t72.5 139t33 143.5q1 12 10.5 16t18.5 -2t8 -18q-4 -72 -32 -146t-70.5 -139t-92.5 -130.5t-101 -131t-94 -129.5t-72.5 -135.5t-35.5 -140.5q66 4 514 -4q420 -12 524 0q1 44 -0.5 87.5t-3.5 64.5l-2 22 q-1 12 8 17.5t18.5 1t10.5 -16.5q1 -9 2 -26t3 -67t1 -97v-5q0 -10 -1 -30.5t-1 -30.5q-3 -69 -0.5 -125t7.5 -93l5 -36q2 -12 -6.5 -18.5t-18.5 -3t-12 15.5q-2 14 -5 37.5t-7.5 95.5t0.5 129q0 27 2 41q-115 -12 -526 0q-473 8 -531 2q-20 -3 -20 18z" />
<glyph unicode="5" horiz-adv-x="1081" d="M38.5 55.5q-0.5 9.5 9 16t20.5 0.5q37 -22 101 -37.5t141.5 -23.5t163.5 -5t168 15.5t153.5 40t121.5 66.5t71 98.5t3 131.5q-21 85 -89 140.5t-156.5 75.5t-189 21t-189 -15.5t-154.5 -42.5q-11 -5 -18.5 0.5t-6.5 17.5q17 142 25.5 238.5t7.5 229t-20 234.5q-1 9 4 15 t14 6q503 -16 789 -4q12 0 17.5 -9t1 -18.5t-16.5 -9.5q-232 -10 -770 4q39 -238 -11 -659q74 25 165 39t194 10.5t191.5 -28t157 -84.5t91.5 -150q20 -80 -1 -146.5t-73.5 -110.5t-127.5 -76t-161.5 -47t-177.5 -19.5t-174.5 3.5t-152.5 25t-111 41q-10 7 -10.5 16.5z" />
<glyph unicode="6" horiz-adv-x="1325" d="M39 449.5q23 95.5 84.5 184.5t152.5 159q49 38 124 89t125.5 87.5t108 87t103 113.5t78.5 141q4 11 14 11.5t17 -7.5t2 -19q-35 -82 -80.5 -147.5t-104 -117t-109 -88t-128 -89t-127.5 -90.5q-100 -80 -154 -160q-65 -106 -75 -201q24 52 76 92.5t116 63.5t138.5 40 t145 21t136 7t109.5 -2q147 -9 274 -61t195 -158l20 -39q36 -97 -18.5 -182t-210.5 -136q-108 -37 -253 -54t-296.5 -4t-249.5 60q-24 12 -57 35q-103 74 -141 171t-15 192.5zM84 285q20 -60 65.5 -109.5t80.5 -69.5l36 -20q93 -45 239 -57.5t287 3.5t248 52q75 25 124.5 58 t69 67.5t23.5 72.5t-12 72q-4 13 -16 33q-64 97 -184.5 145.5t-256.5 55.5h-5q-22 1 -42.5 1.5t-73.5 -0.5t-98.5 -4.5t-107.5 -12.5t-112.5 -22.5t-102 -36.5t-86 -52.5t-55.5 -72.5t-19 -95q0 -6 -2 -8z" />
<glyph unicode="7" horiz-adv-x="1005" d="M47.5 1255q-3.5 10 2.5 18.5t18 6.5q48 -7 185 -12.5t263 -8t267 -4.5t149 -2q12 0 17 -7.5t-1 -18.5q-5 -9 -28 -49t-30.5 -54t-28 -51t-30 -56.5t-25.5 -53t-25.5 -57t-20 -52.5t-17.5 -55q-105 -381 -86 -799q1 -12 -7.5 -17.5t-18 -1t-10.5 16.5q-19 425 86 811 q18 64 56 146.5t60.5 123t77.5 138.5q-720 9 -838 26q-12 2 -15.5 12z" />
<glyph unicode="8" horiz-adv-x="1286" d="M29 309v4q-9 71 18 128t82.5 94.5t122.5 61.5t149 38q-156 30 -254.5 109t-113.5 198v2q-8 66 15 120t69 89.5t108.5 63t132.5 40.5t141.5 22.5t135 8t113.5 -1.5q145 -10 267 -64t187 -161l19 -41q35 -99 -17.5 -186t-204.5 -140q-92 -32 -174 -49q269 -42 373 -217 l21 -39q33 -99 -19.5 -186.5t-202.5 -141.5q-165 -58 -334 -70t-303.5 19.5t-226 109.5t-104.5 189zM66 315q20 -96 105 -165.5t208 -101t283.5 -21t322.5 68.5q72 26 119.5 60.5t66.5 70.5t23 75t-12 75q-5 15 -17 33q-60 100 -175.5 149.5t-248.5 56.5q-6 1 -34 1.5 t-79 0.5t-110 -6t-124 -16.5t-123.5 -33.5t-105.5 -54.5t-74 -81t-25 -111.5zM68 946q21 -96 106 -165.5t208 -100.5t283 -20t322 69q140 49 184 123t15 156q-5 14 -17 32q-60 101 -174.5 150.5t-249.5 58.5h-5q-268 11 -450 -50q-226 -78 -222 -253z" />
<glyph unicode="9" horiz-adv-x="1325" d="M49 993q-34 97 20 181t210 137q110 36 254 52.5t296 3.5t250 -60q23 -10 56 -35q84 -59 125 -134t40 -150.5t-32 -152.5t-86 -144.5t-127 -123.5q-44 -34 -105 -76t-104.5 -71t-96 -71t-91 -82t-76.5 -96.5t-66 -121.5q-7 -18 -24 -11t-11 25q35 81 81.5 146.5t105 117 t109.5 88.5t128 89.5t127 91.5q104 83 152 160q69 105 76 198q-24 -51 -76 -91.5t-116 -63t-138.5 -39t-145 -21t-136 -7t-109.5 2.5q-147 9 -274 60.5t-195 156.5zM84 1006q4 -15 16 -33q43 -68 120.5 -113.5t155.5 -64.5t165 -23q9 -1 45 -2t103.5 1t140 10t149 28.5 t136 51t96.5 83.5t34 121v10q-13 37 -36 71.5t-47 56.5t-47 39t-37 24.5t-15 7.5q-93 45 -239 57.5t-286.5 -3.5t-246.5 -52q-146 -49 -191 -120t-16 -150z" />
<glyph unicode=":" horiz-adv-x="96" d="M29 522v15q0 12 9.5 17t18.5 0t9 -17v-15q0 -12 -9 -17t-18.5 0t-9.5 17zM29 870v15q0 12 9.5 17t18.5 0t9 -17v-15q0 -12 -9 -17t-18.5 0t-9.5 17z" />
<glyph unicode=";" horiz-adv-x="96" d="M16 412q-1 23 10 61.5t9 63.5q-1 12 8 17.5t18.5 1t10.5 -16.5q2 -26 -9 -64t-10 -63q1 -12 -8 -17t-18.5 0t-10.5 17zM29 870v15q0 12 9.5 17t18.5 0t9 -17v-15q0 -12 -9 -17t-18.5 0t-9.5 17z" />
<glyph unicode="&#x3c;" horiz-adv-x="1110" d="M51 713q0 11 10 14q0 2 7 2q154 42 477.5 177.5t503.5 176.5q11 3 17.5 -4.5t4 -16.5t-13.5 -11q-178 -41 -490.5 -172t-453.5 -172q121 -70 275.5 -127t327 -113.5t285.5 -106.5q15 -6 6 -20.5t-24 -7.5q-115 50 -297 108.5t-341.5 118.5t-285.5 137q-8 5 -8 17z" />
<glyph unicode="=" horiz-adv-x="784" d="M61 1013q-5 9 0 18t17 9q59 0 202 5t246.5 2.5t200.5 -19.5q12 -2 15.5 -12t-3 -18.5t-18.5 -6.5q-96 17 -198 20t-245.5 -2t-199.5 -5q-12 0 -17 9zM63 671q-5 9 0 18t17 9q44 0 200.5 5.5t257.5 2.5t199 -20q12 -2 15.5 -12t-3 -18.5t-18.5 -6.5q-75 13 -165.5 18 t-156 3.5t-170 -4.5t-159.5 -4q-12 0 -17 9z" />
<glyph unicode="&#x3e;" horiz-adv-x="1118" d="M59 1062q-2 9 5 16.5t16 4.5q181 -41 504 -176.5t479 -177.5q4 0 6 -2q8 -3 8 -14q3 -10 -8 -17q-126 -77 -285.5 -137t-341.5 -118.5t-297 -108.5q-15 -8 -24 7t8 21q112 50 284.5 106.5t327.5 113.5t275 127q-141 41 -453.5 172t-490.5 172q-11 2 -13 11z" />
<glyph unicode="?" horiz-adv-x="983" d="M59 1237q8 43 48.5 73.5t103.5 45.5t127 21.5t137 6.5q115 0 199 -13.5t135 -37t80.5 -60.5t40 -77t10.5 -94q0 -44 -0.5 -63t-8.5 -53t-24 -58q-26 -38 -77.5 -70.5t-107.5 -56t-111 -48.5t-98.5 -59.5t-59.5 -77.5q-9 -26 -10 -60.5t2.5 -79t3.5 -62.5q0 -9 -1.5 -48.5 t-1.5 -70.5q0 -12 -9 -16.5t-18 1t-9 17.5q0 31 1 69.5t1 47.5q0 20 -4 67t-2.5 82.5t12.5 65.5q21 56 76 98t119 68.5t126.5 53.5t107.5 68t52 97q4 25 4 88q0 46 -7.5 78.5t-33 66.5t-71 54.5t-125 33.5t-191.5 13q-157 0 -263 -29t-116 -88q-2 -12 -12 -15.5t-18.5 3 t-6.5 18.5zM389 43q0 17 12.5 28t28.5 11t27.5 -11t11.5 -28t-12 -29t-27 -12q-17 0 -29 12t-12 29z" />
<glyph unicode="@" horiz-adv-x="1411" d="M35 795q6 138 24 276q1 5 4 33.5t4 36.5t5 32t8 36.5t11 30t15 32.5q66 115 269 133q260 23 475 4q147 -10 252 -43q139 -44 196 -106q20 -21 34.5 -44t22 -53.5t12.5 -48.5t4.5 -58t-0.5 -51.5t-3.5 -59t-3.5 -52.5q-5 -60 2.5 -171t7.5 -134q1 -57 -0.5 -93t-19.5 -88 t-54 -79q-58 -43 -134 -27.5t-107 76.5q-12 22 -20.5 45.5t-13 54.5t-6.5 46.5t-4 56t-3 49.5q-5 55 -15 99.5t-29.5 92.5t-54.5 82.5t-84 50.5q-96 29 -198 34.5t-199 -19.5q-83 -21 -115 -86q-35 -74 -28 -170q2 -42 9 -80.5t23 -80.5t47 -73t74 -43q108 -32 242 -35 q155 0 242 31q9 3 14 -2.5t4 -14t-10 -12.5q-146 -50 -367 -20q-87 9 -146 30t-95 72q-47 66 -62.5 152t-1.5 170q14 83 60 135q38 43 129 62q203 37 387 -23q98 -33 141 -104q20 -35 27 -60v180q0 13 16 13t16 -13v-317q1 -17 3 -70t4 -79t11.5 -66t26.5 -70 q35 -66 113 -69q74 0 107 47q24 36 33 89t8 84.5t-5 94.5q-13 192 -6 270q10 137 2 194q-19 126 -118 181q-182 99 -517 103q-45 0 -130.5 -3t-106.5 -4q-122 -4 -191 -22q-37 -10 -65 -26.5t-47 -43t-31 -48t-20.5 -59.5t-11.5 -58.5t-9 -63.5q-37 -339 -14 -553 q25 -255 135 -365q73 -71 203 -90q106 -16 319 -20q205 -4 291 -15q80 -8 115 -10q65 -5 84 -2q9 2 14 -4t4 -13t-10 -9q-35 -6 -146 4q-173 15 -198 16q-35 1 -147 4t-171 6q-185 8 -266 39q-164 62 -227 283q-50 185 -39 463z" />
<glyph unicode="Q" horiz-adv-x="968" d="M56 -4q-2 2 -2 6t3 8q70 89 175.5 265t142.5 231q15 23 34 50t42 59.5t36 50.5q28 42 99.5 158t115.5 177q22 30 69 88.5t80.5 106.5t57.5 94q4 8 13 9h2q8 0 14 -6q4 -4 4 -9q0 -3 -2 -6q-24 -47 -58 -95t-82.5 -108t-70.5 -90q-41 -59 -111 -172.5t-102 -161.5 q-18 -26 -56.5 -79t-56.5 -80q-38 -56 -143.5 -232.5t-175.5 -265.5q-5 -7 -12 -7q-2 0 -3 1q-9 1 -13 8z" />
<glyph unicode="[" horiz-adv-x="432" d="M98 1411q0 7 6 13t13 6h200q12 0 17 -9t0 -18.5t-17 -9.5h-180q3 -63 1 -186t1 -185q4 -65 5 -208.5t6 -217.5q5 -65 6 -197.5t6 -197.5q17 -198 2 -344h194q12 0 17 -9.5t0 -18.5t-17 -9h-215q-21 0 -18 20q18 147 0 357q-5 67 -6 199t-6 198q-5 74 -6 217t-5 209 q-3 71 -2.5 195.5t-1.5 195.5z" />
<glyph unicode="\" horiz-adv-x="1105" d="M78 1602q-5 11 2 19t17 7t14 -12q26 -58 64 -118t90 -133t77 -112q50 -78 132 -227t106 -190q21 -34 64 -100.5t63 -100.5q45 -74 160 -292t192 -329q7 -9 1.5 -18t-15 -10t-17.5 8q-78 112 -195.5 332.5t-158.5 289.5q-22 38 -65.5 106t-59.5 95q-34 56 -112.5 200 t-125.5 218q-25 38 -77.5 112t-91 135t-64.5 120z" />
<glyph unicode="]" horiz-adv-x="391" d="M61 -152.5q5 9.5 17 9.5h196q-15 146 2 344q5 69 6 201.5t5 193.5q7 80 7.5 227.5t2.5 198.5q4 66 2.5 185.5t1.5 185.5h-180q-12 0 -17 9.5t0 18.5t17 9h198q7 0 13 -6t6 -13q0 -26 0.5 -195.5t-4.5 -195.5q-2 -52 -2.5 -199t-7.5 -227q-3 -56 -4.5 -190t-8.5 -207 q-15 -230 2 -357q3 -20 -18 -20h-217q-12 0 -17 9t0 18.5z" />
<glyph unicode="^" horiz-adv-x="440" d="M52.5 1041q-4.5 8 0.5 18q31 55 64 110l47 78l14 25l4 6l-4 -6q17 30 37 10q25 -35 91 -117.5t97 -128.5q7 -9 1.5 -18.5t-14.5 -10t-17 8.5q-29 43 -90.5 118.5t-81.5 102.5l-6 -10l-45 -76l-66 -111q-6 -9 -16.5 -8t-15 9z" />
<glyph unicode="_" horiz-adv-x="929" d="M51 -1q-5 9 0 18.5t17 9.5q71 0 247.5 6t304.5 2.5t248 -23.5q12 -2 15.5 -11.5t-3 -17.5t-18.5 -6q-118 19 -246 22.5t-301.5 -3t-246.5 -6.5q-12 0 -17 9z" />
<glyph unicode="`" horiz-adv-x="174" d="M55 1274q0 12 9.5 17t18.5 0t9 -17q0 -53 0.5 -74.5t7.5 -62.5t21 -72q7 -17 -9 -24t-24 8q-15 34 -23 76t-9 70t-1 79z" />
<glyph unicode="{" horiz-adv-x="614" d="M105 710q3 11 18 13q42 4 71 37t40.5 83t15 90.5t2.5 82.5q-1 48 -13.5 137t-15.5 115q-5 45 2 75t29.5 48.5t48.5 28.5t70 20q12 3 19 -5t4 -18t-15 -12q-17 -4 -25 -6t-21.5 -5.5t-20 -6.5t-16.5 -8t-14.5 -10t-10.5 -12t-8.5 -15t-4.5 -18.5t-2 -23.5t2 -28 q3 -26 14 -110t14 -124t-1.5 -105t-22.5 -118q-29 -92 -96 -119q33 -27 56.5 -53.5t37.5 -58t22 -54.5t11 -63t3 -60.5t-1.5 -70.5t-1.5 -72q0 -9 -7.5 -108t-2.5 -169.5t30 -97.5q31 -34 97 -20q12 3 19 -5t4 -18t-15 -12q-88 -19 -126.5 24t-45.5 134q-3 50 3.5 144 t6.5 130q0 25 2 75t1.5 70t-3.5 58.5t-12 60t-25 51.5t-42.5 56t-63.5 53q-13 9 -10 20z" />
<glyph unicode="|" horiz-adv-x="184" d="M45 205q0 102 8.5 183.5t18 189t10.5 184.5q2 143 2 860q0 12 9 17t18.5 0t9.5 -17q0 -718 -2 -862q-1 -75 -10.5 -182t-18 -187t-8.5 -181t16 -185q2 -11 -6.5 -17.5t-18.5 -4t-12 14.5q-16 85 -16 187z" />
<glyph unicode="}" horiz-adv-x="507" d="M100 -154q-3 10 3.5 18t17.5 5q68 -13 96 20q20 21 27.5 76t5.5 104t-7 115.5t-5 79.5q0 25 -1 72.5t-1 70t3 61t11 62.5t22 55t38 57.5t57 53.5q-68 28 -97 119q-18 53 -22.5 118t-1.5 105t14 124t14 110q7 70 -19 93t-103 40q-11 2 -13.5 12t4 18t17.5 5 q45 -10 70.5 -19.5t48 -28t29.5 -48.5t3 -76q-3 -28 -10.5 -79.5t-12.5 -93.5t-7 -79q-1 -41 3 -82.5t15.5 -91t40 -82.5t70.5 -37q17 -1 19.5 -12.5t-9.5 -20.5q-37 -27 -63.5 -53t-42.5 -56t-25.5 -51.5t-12.5 -59.5t-3.5 -59t0.5 -70.5t1 -74.5q1 -24 8.5 -123t2.5 -151 q-7 -91 -45 -134t-125 -24q-12 2 -15 12z" />
<glyph unicode="~" horiz-adv-x="845" d="M150 727q1 48 19 76t50 35t69 4.5t82 -16t83.5 -27t78.5 -26.5t62 -17q84 -14 115 27t20 132q-2 12 6.5 18t18.5 2.5t12 -15.5q14 -108 -31 -163.5t-147 -37.5q-47 8 -149.5 46t-159.5 42q-50 4 -70.5 -14t-22.5 -66q0 -12 -9 -17t-18 0t-9 17z" />
<glyph unicode="&#xa3;" horiz-adv-x="1167" d="M134.5 589q-5.5 11 0 22.5t19.5 11.5h112q0 10 1 25t1 20v53h-114q-14 0 -19.5 11.5t0 22.5t19.5 11h112q-11 204 -3 289q18 187 120 223q83 31 150 -8.5t90 -122.5q3 -12 -4.5 -19.5t-17.5 -5t-13 14.5l-1 2q-2 8 -5 15t-11.5 22.5t-18 27.5t-25.5 25t-34 19.5t-44 6.5 t-54 -10q-102 -37 -101 -303q1 -44 7 -176h170q14 0 19.5 -11t0 -22.5t-19.5 -11.5h-166v-55q0 -4 -1 -18.5t-1 -24.5h168q14 0 19.5 -11.5t0 -22.5t-19.5 -11h-168q0 -400 6 -541h301q29 0 72 3t72 6l28 3q12 1 18 -8t2 -18.5t-16 -10.5q-108 -12 -176 -12h-317 q-8 0 -13.5 5.5t-5.5 12.5q-8 370 -8 560h-112q-14 0 -19.5 11z" />
<glyph unicode="&#xa5;" horiz-adv-x="1640" d="M183 1304q4 10 13 13t19 -4q12 -11 36 -34q135 -128 211 -197.5t197.5 -170.5t229.5 -174q80 51 150.5 129.5t145.5 178.5t126 153q16 16 55 55.5t67.5 67.5t55.5 53q2 2 20.5 19t28 24t26 19t31 16t27.5 2q18 -3 19 -22q0 -17 -15 -17h-4q-20 2 -61 -33q-43 -32 -86 -75 q-24 -24 -51.5 -51t-60 -60t-50.5 -51q-31 -33 -62.5 -72.5t-68 -90t-56.5 -75.5q-108 -134 -217 -205q7 -85 11 -178q110 -18 184 -18q19 0 19 -19.5t-19 -19.5q-74 0 -184 18q2 -35 2 -100q124 -14 159 -14q19 0 19 -19.5t-19 -19.5q-35 0 -159 14q0 -42 -1 -148t-1 -180 q0 -19 -19.5 -19t-19.5 19q0 76 1 183.5t1 148.5q-65 7 -117 4q-13 -1 -17.5 8.5t0.5 19.5t17 11q52 3 117 -4q0 68 -2 103q-36 6 -138 20q-12 1 -17 11t-0.5 19.5t17.5 8.5q67 -9 138 -21q-1 22 -5.5 79t-5.5 93q-115 78 -247.5 188.5t-207.5 180.5t-227 215q-9 8 -5 18z " />
<glyph unicode="&#xa9;" horiz-adv-x="870" d="M48.5 582.5q1.5 85.5 0.5 119.5q0 158 4 238q12 146 51 215q41 76 121 115t181 41q239 4 331 -146q32 -53 49.5 -127t21 -117t7.5 -135q10 -124 3.5 -277.5t-40.5 -272.5q-28 -93 -93.5 -156t-164.5 -76q-94 -12 -185 18t-149 95q-42 48 -94 166q-40 84 -43 178 q-2 36 -0.5 121.5zM81 640q1 -105 1 -128q0 -117 29 -188q42 -111 77 -158q51 -71 136 -107.5t178 -27.5q101 14 160 67q63 56 88 164q21 86 29 191t7 176t-6 192q-3 66 -6 100.5t-13.5 92.5t-32 102t-54.5 78q-45 46 -117 69t-146.5 20.5t-138.5 -26.5q-172 -61 -184 -317 v-2q-5 -64 -6.5 -128.5t-0.5 -169.5zM287 774.5q1 101.5 10 194.5q0 14 16 14q23 1 75.5 4t75 3t75.5 -3q11 -1 15.5 -8.5t0 -14.5t-15.5 -6q-21 4 -105.5 0t-105.5 -4q-7 -88 -7.5 -185.5t2.5 -221t3 -185.5q21 -1 104.5 -11t128.5 -7q9 1 13 -6.5t0 -15.5t-13 -9 q-47 -3 -132 8.5t-118 12.5q-16 0 -16 14q0 63 -3.5 194t-2.5 232.5z" />
<glyph unicode="&#xad;" horiz-adv-x="675" d="M35 607q-2 20 14 22h6q124 -15 287 -11q22 0 120.5 3.5t151.5 3.5q20 0 20 -21.5t-20 -21.5q-52 0 -149.5 -3t-120.5 -4q-179 -4 -289 9q-19 3 -20 23z" />
<glyph unicode="&#xae;" horiz-adv-x="886" d="M69.5 582.5q1.5 85.5 0.5 119.5q0 158 4 238q12 146 51 215q41 76 121 115t180 41q240 4 332 -146q32 -53 49.5 -127t21 -117t7.5 -135q10 -124 3.5 -277.5t-40.5 -272.5q-28 -93 -93.5 -156t-164.5 -76q-94 -12 -185 18t-149 95q-42 48 -94 166q-40 84 -43 178 q-2 36 -0.5 121.5zM101 728q0 -41 0.5 -113t0.5 -103q0 -117 29 -188q41 -108 78 -158q51 -71 135.5 -107.5t177.5 -27.5q101 14 160 67q63 56 88 164q21 86 29.5 190t7.5 177.5t-6 191.5q-4 86 -9 135t-29.5 121.5t-68.5 116.5q-45 46 -116.5 69t-146 20.5t-138.5 -26.5 q-172 -61 -184 -317v-2q-4 -49 -6 -109t-2 -101zM311 283q17 103 19 213.5t-4 266t-7 214.5q0 5 4.5 9.5t8.5 4.5q84 10 252 10q5 0 9.5 -4t4.5 -8q27 -145 12 -379q-4 -14 -18 -14q-30 -4 -94 -8q21 -27 43 -61t34.5 -55t38 -66.5t33.5 -59.5q4 -8 -2 -14.5t-14.5 -6.5 t-14.5 7q-2 4 -14.5 26.5t-15.5 28t-14.5 26t-15.5 28t-15 26t-17 27.5t-16.5 24.5t-18.5 26.5t-18 24t-20 25q-6 8 -0.5 15t14.5 7q22 0 61 3t49 4q16 192 -8 348q-143 0 -213 -6q0 -54 6 -212.5t3.5 -267t-19.5 -211.5q-2 -8 -11 -9.5t-16.5 4.5t-5.5 14z" />
<glyph unicode="&#x5b0;" d="M-18 -147q0 9 6 14.5t14 5.5q6 0 12 -5.5t6 -14.5q0 -7 -6 -14t-12 -7q-7 0 -13.5 6.5t-6.5 14.5zM-16 -244q0 19 18 19t18 -19q0 -20 -18 -20t-18 20z" />
<glyph unicode="&#x5b1;" d="M-80 -156q0 9 6.5 14t14.5 5q18 0 18 -19q0 -20 -18 -20q-8 0 -14.5 5.5t-6.5 14.5zM-20 -221q0 9 6 14.5t14 5.5q18 0 18 -20q0 -8 -5.5 -14.5t-12.5 -6.5t-13.5 6.5t-6.5 14.5zM45 -156q0 19 18 19q19 0 19 -19q0 -9 -5.5 -14.5t-13.5 -5.5q-18 0 -18 20zM158 -145 q0 20 18 20q8 0 13.5 -5.5t5.5 -14.5q0 -8 -6 -14.5t-13 -6.5t-12.5 6.5t-5.5 14.5zM158 -242q0 19 18 19q8 0 14.5 -5t6.5 -14t-6.5 -14.5t-14.5 -5.5q-18 0 -18 20z" />
<glyph unicode="&#x5b2;" d="M-173 -97q-2 10 5 17.5t18 3.5q46 -12 152 2q38 3 105.5 -1.5t87.5 -4.5q12 0 17 -9t0 -18.5t-17 -9.5q-21 0 -87 4.5t-102 1.5q-116 -13 -166 0q-11 4 -13 14zM260 -104q0 9 5.5 14.5t13.5 5.5q18 0 18 -20q0 -8 -5.5 -14.5t-12.5 -6.5t-13 6.5t-6 14.5zM260 -201 q0 19 19 19q8 0 14 -5t6 -14t-6 -14.5t-14 -5.5t-13.5 5.5t-5.5 14.5z" />
<glyph unicode="&#x5b3;" d="M-172 -89q5 18 22 13q46 -14 152 0q38 3 105.5 -1.5t87.5 -4.5q12 0 17 -9t0 -18.5t-17 -9.5q-21 0 -82 4t-93 2v-2q-3 -17 1 -46.5t4 -37.5q0 -12 -9.5 -17t-18.5 0t-9 17q0 10 -3 38.5t-1 45.5q-92 -12 -144 2q-17 6 -12 24zM260 -104q0 9 5.5 14.5t13.5 5.5 q18 0 18 -20q0 -8 -5.5 -14.5t-12.5 -6.5t-13 6.5t-6 14.5zM260 -201q0 19 19 19q8 0 14 -5t6 -14t-6 -14.5t-14 -5.5t-13.5 5.5t-5.5 14.5z" />
<glyph unicode="&#x5b4;" horiz-adv-x="1574" d="M-20 -139q0 9 6 14.5t14 5.5q18 0 18 -20q0 -8 -5.5 -14.5t-12.5 -6.5t-13.5 6.5t-6.5 14.5z" />
<glyph unicode="&#x5b5;" d="M-80 -156q0 9 6.5 14t14.5 5q18 0 18 -19q0 -20 -18 -20q-8 0 -14.5 5.5t-6.5 14.5zM45 -156q0 19 18 19q19 0 19 -19q0 -9 -5.5 -14.5t-13.5 -5.5q-18 0 -18 20z" />
<glyph unicode="&#x5b6;" d="M-80 -156q0 9 6.5 14t14.5 5q18 0 18 -19q0 -20 -18 -20q-8 0 -14.5 5.5t-6.5 14.5zM-20 -221q0 9 6 14.5t14 5.5q18 0 18 -20q0 -8 -5.5 -14.5t-12.5 -6.5t-13.5 6.5t-6.5 14.5zM45 -156q0 19 18 19q19 0 19 -19q0 -9 -5.5 -14.5t-13.5 -5.5q-18 0 -18 20z" />
<glyph unicode="&#x5b7;" d="M-173 -97q-2 10 5 17.5t18 3.5q46 -12 152 2q38 3 105.5 -1.5t87.5 -4.5q12 0 17 -9t0 -18.5t-17 -9.5q-21 0 -87 4.5t-102 1.5q-116 -13 -166 0q-11 4 -13 14z" />
<glyph unicode="&#x5b8;" d="M-172 -89q5 18 22 13q46 -14 152 0q38 3 105.5 -1.5t87.5 -4.5q12 0 17 -9t0 -18.5t-17 -9.5q-21 0 -82 4t-93 2v-2q-3 -17 1 -46.5t4 -37.5q0 -12 -9.5 -17t-18.5 0t-9 17q0 10 -3 38.5t-1 45.5q-92 -12 -144 2q-17 6 -12 24z" />
<glyph unicode="&#x5b9;" d="M-18 1524q0 9 6 14.5t14 5.5q18 0 18 -20q0 -9 -5 -15t-13 -6t-14 6t-6 15z" />
<glyph unicode="&#x5ba;" d="M188 745q0 9 5.5 15t13.5 6t13 -6t5 -15q0 -20 -18 -20q-8 0 -13.5 5.5t-5.5 14.5z" />
<glyph unicode="&#x5bb;" d="M143 -127q0 9 5.5 15t13.5 6t13 -6t5 -15q0 -8 -5.5 -14t-12.5 -6t-13 6t-6 14zM215 -203q0 19 18 19q19 0 19 -19q0 -9 -5.5 -14.5t-13.5 -5.5q-18 0 -18 20zM287 -285q0 19 18 19q19 0 19 -19q0 -9 -5.5 -14.5t-13.5 -5.5q-18 0 -18 20z" />
<glyph unicode="&#x5bc;" d="M-20 610q0 9 5 15t13 6t13 -6t5 -15q0 -8 -5.5 -14t-12.5 -6t-12.5 6t-5.5 14z" />
<glyph unicode="&#x5be;" horiz-adv-x="1003" d="M71 818.5q-5 9.5 0 18.5t17 9q71 0 248 6t305.5 2.5t247.5 -23.5q12 -2 15.5 -11t-3 -17t-18.5 -6q-118 19 -247 22t-301 -3.5t-247 -6.5q-12 0 -17 9.5z" />
<glyph unicode="&#x5bf;" horiz-adv-x="1243" d="M235 1596.5q-5 9.5 0 18.5t17 9q73 0 248.5 6.5t304.5 3t248 -23.5q12 -2 15.5 -11.5t-3 -17.5t-18.5 -6q-118 19 -247 22t-301 -3.5t-247 -6.5q-12 0 -17 9.5z" />
<glyph unicode="&#x5c0;" horiz-adv-x="208" d="M92 88q16 147 14 235.5t-8.5 235.5t-3.5 236q17 544 17 764q0 12 9 17t18 0t9 -17q0 -256 -16 -764q-3 -90 3.5 -237.5t8 -237t-13.5 -236.5q-1 -12 -10.5 -16t-18.5 2t-8 18z" />
<glyph unicode="&#x5c3;" horiz-adv-x="163" d="M49 684q4 -10 13 -12t18 6q37 38 45 83t-21 95q-6 9 -16 8t-14 -9.5t2 -18.5q43 -64 -23 -134q-8 -8 -4 -18zM54 1011q-10 11 3 23q8 12 17 15l22 10q17 -1 19 -17q3 -11 -4 -20t-15 -12l-8 -4q-21 -10 -34 5z" />
<glyph unicode="&#x5d0;" horiz-adv-x="1449" d="M55 1292q0 27 25 27q8 0 13 -3.5t7 -7.5t3 -8l1 -4q5 -72 99 -155q95 -80 215 -140q97 -51 284.5 -130t239.5 -103q10 -5 31 -14.5t31 -14.5q3 99 1 179t1.5 179t17.5 177q1 9 10 11t17 -4t6 -15q-17 -106 -17.5 -310t-1.5 -233q106 -51 179.5 -106.5t109.5 -131.5 q21 -51 31 -92q2 -7 14.5 -53t16.5 -70q22 -116 22 -254q0 -15 -17.5 -15t-17.5 15q0 171 -28 283q-3 12 -10 41.5t-11.5 46t-12 40.5t-17 44t-21.5 37q-35 50 -86.5 87.5t-128.5 78.5q-120 62 -246 117q-29 12 -126 52.5t-141.5 60t-116.5 55t-128 69.5q-164 103 -211 191 q2 -40 20.5 -264t10.5 -343q-15 -203 -2 -321q25 -172 -6 -289q-2 -9 -11.5 -11t-17 4t-4.5 15q12 47 14 103.5t-1 96.5t-11 105q-5 38 -6 85.5t0 72.5t5 88.5t5 75.5q7 120 -13 341t-20 314z" />
<glyph unicode="&#x5d1;" horiz-adv-x="1542" d="M68.5 24.5q-3.5 7.5 0.5 15t15 7.5q111 -8 385.5 -4.5t386.5 0.5q187 -6 188 -6q112 -10 136 -10v6q16 140 16 311.5t-9 312.5t-13 312.5t4 312.5q-32 1 -71 -1t-65 -4t-74 -6.5t-67 -6.5q-101 -9 -137 -7q-26 0 -75 6t-58 7q-77 8 -261 2t-261 -2q-11 1 -15.5 8.5 t0 14.5t15.5 7q75 -3 261 3t261 -3q114 -14 145 -14q90 4 139 8q191 21 283 17q6 0 11 -4.5t5 -10.5q-12 -171 -2 -422t17.5 -421t-15.5 -420v-4q19 1 62.5 4t69.5 4.5t62 -0.5t65 -8q12 -4 12 -11q1 -1 2 -3t2 -3q9 -13 -7 -19q-15 -6 -24 5l-2 4q-59 7 -92.5 6t-93.5 -5.5 t-92 -4.5q-31 0 -86 4.5t-76 5.5q-88 3 -174 6q-102 2 -380 -2t-380 4q-10 1 -13.5 8.5z" />
<glyph unicode="&#x5d2;" horiz-adv-x="944" d="M57 0q-6 11 6 18q208 110 383 228q132 89 199 151q28 28 41 42t30 41.5t19 51.5v3q-12 74 -14 114q-5 84 2.5 316.5t-8.5 316.5q-51 -1 -157 -7t-156 -6.5t-156 9.5q-11 2 -13 10t4.5 14.5t16.5 4.5q105 -10 158 -9t158.5 7.5t158.5 7.5q16 0 16 -13q3 -3 3 -4 q18 -91 10.5 -329.5t-0.5 -329.5q11 -160 78 -324q26 -64 37.5 -96t23.5 -86t10 -100q0 -13 -17.5 -13t-17.5 13q1 30 -2.5 60t-15 67.5t-18 56t-25.5 66.5t-23 57q-20 51 -38 129q-17 -29 -60 -72q-78 -76 -205 -162q-203 -136 -403 -239q-17 -8 -25 6z" />
<glyph unicode="&#x5d3;" horiz-adv-x="1499" d="M61.5 1289q-4.5 8 0.5 16t16 8h4q113 -3 341 -10.5t341 -10.5q497 -18 668 -18q11 0 15.5 -8t-0.5 -15.5t-17 -7.5h-5q-135 0 -409 8q-10 -73 -4.5 -325.5t4.5 -323.5q-5 -248 -2 -319q1 -31 4.5 -92.5t4 -92.5t-2.5 -92q-2 -15 -19.5 -15t-17.5 15q3 61 2.5 92t-4 92.5 t-4.5 92.5q-3 26 -0.5 159.5t2.5 159.5q1 73 -4.5 325.5t4.5 323.5q-831 28 -901 29q-12 1 -16.5 9z" />
<glyph unicode="&#x5d4;" horiz-adv-x="1830" d="M54 1285q0 15 18 15q278 0 835 6.5t836 6.5q6 0 10 -4q8 -4 8 -13q-1 -22 -6 -104.5t-6.5 -114t-4.5 -102t-3.5 -114t0 -102t2.5 -110.5q2 -48 7 -102.5t13 -118.5t11 -100q10 -109 10 -322q0 -15 -17.5 -15t-17.5 15q0 216 -10 322q-3 25 -12 98t-14 123.5t-7 99.5 q-1 34 -2 68.5t-0.5 74t1 66.5t2 74t2 66.5t3.5 73.5t4 66.5t4.5 73.5t3.5 68q-276 0 -826 -5t-826 -5q-18 0 -18 15zM319 711q0 12 9.5 17t18.5 0t9 -17q0 -114 15.5 -340t15.5 -338q0 -12 -9.5 -17t-18.5 0t-9 17q0 112 -15.5 338t-15.5 340z" />
<glyph unicode="&#x5d5;" horiz-adv-x="198" d="M29.5 1288.5q-4.5 8.5 0 16t15.5 6.5q50 -6 100 0h5q18 0 18 -17q-2 -115 1.5 -330t2.5 -313q-1 -99 -10.5 -312t-9.5 -325q0 -9 -9 -12.5t-17.5 1t-8.5 13.5q0 113 9.5 330.5t10.5 317.5q0 88 -3.5 295t-2.5 319q-43 -3 -86 0q-11 2 -15.5 10.5z" />
<glyph unicode="&#x5d6;" horiz-adv-x="1513" d="M46 1293.5q-2 8.5 4.5 14.5t17.5 3q226 -54 692 -137.5t700 -139.5q15 -3 11 -17.5t-21 -10.5q-226 54 -696 137q-5 -41 -66 -90q-20 -15 -166 -119q-4 -3 -17 -11.5t-21.5 -15.5t-12.5 -14q-7 -12 7 -27.5t30 -23.5q15 -8 44 -22.5t44 -22.5q81 -46 78 -144 q-2 -37 -22 -101t-25 -89q-4 -26 -7 -76t-6 -70q-2 -30 -7 -87t-7 -83q-4 -99 8 -137q3 -9 -4.5 -14.5t-17.5 -4t-13 10.5q-12 41 -8 129q2 70 13 170q3 26 6 74t4 63q4 33 25 97.5t24 99.5q4 67 -25 108q-6 8 -13 14.5t-18.5 12.5t-17 9t-21.5 10t-18 8q-116 57 -88 104 q8 14 20.5 25t34.5 25.5t29 19.5q40 32 76 55q4 3 33.5 23t45 32t31.5 32t15 36q-475 87 -662 133q-11 3 -13 11.5z" />
<glyph unicode="&#x5d7;" horiz-adv-x="1126" d="M29 1287q-1 10 7 16.5t19 1.5q14 -6 35 -8.5t37 -2.5t41.5 1t34.5 1q5 0 69 0.5t162.5 1t186.5 0.5q402 -4 419 -10t17 -41q0 -13 -2.5 -47.5t-1.5 -52.5q2 -29 1.5 -80t0.5 -80q20 -648 18 -973q0 -12 -9.5 -17t-18.5 0t-9 17q2 325 -18 973q-1 20 -0.5 78t-1.5 78 q-1 19 1.5 54.5t2.5 49.5v6q-59 5 -399 9q-88 0 -186.5 -0.5t-162.5 -1t-69 -0.5q-11 0 -35.5 -1.5t-38.5 -1.5q-2 -22 1 -62.5t3 -53.5q-5 -31 -1.5 -234.5t3.5 -234.5q0 -109 7.5 -328t7.5 -330q0 -12 -9 -17t-18.5 0t-9.5 17q0 109 -7.5 328.5t-7.5 329.5q0 32 -3 235.5 t1 235.5q0 13 -3 54t-1 63q-27 3 -51 12q-11 5 -12 15z" />
<glyph unicode="&#x5d8;" horiz-adv-x="1093" d="M63 1296q0 12 9.5 17t18.5 0t9 -17q-4 -237 2 -323q4 -55 5.5 -164t5.5 -164t1 -169.5t1 -166.5q4 -35 2.5 -140.5t-0.5 -125.5q97 1 275 1.5t324 1.5t275 3q3 40 4 122t4 122q4 56 -1 236t-5 200q-1 66 -4.5 245t-3.5 279q-70 2 -375 2q-4 -32 -10.5 -124.5 t-11.5 -137.5q-7 -52 -20 -120.5t-15 -88.5q-1 -12 -10.5 -16t-18.5 2t-8 18q2 20 15 88.5t20 120.5q5 41 12 141.5t12 137.5q4 16 19 16q377 0 412 -2q16 -4 16 -18q0 -104 3.5 -290t4.5 -253q0 -19 5 -200.5t1 -237.5q-3 -43 -4 -130.5t-4 -131.5q-2 -6 -7 -11.5t-11 -5.5 q-4 0 -207.5 -2.5t-358.5 -4t-211 0.5h-4h-16h-47h-45h-17q-22 0 -24 17q-2 26 -0.5 129t-1.5 153q-4 55 -1 169t-1 169t-5 164t-5 164q-7 98 -3 325z" />
<glyph unicode="&#x5d9;" horiz-adv-x="270" d="M30.5 1268.5q-3.5 7.5 1 14t13.5 5.5q80 -3 160 0q18 3 26 -14q5 -10 5 -12q-9 -163 -5 -371q1 -9 -7 -13t-16.5 -1t-8.5 12q-4 210 2 371q-77 -3 -158 0q-9 1 -12.5 8.5z" />
<glyph unicode="&#x5da;" horiz-adv-x="968" d="M50 1289q6 16 24 14q47 -9 105.5 -13t98.5 -4t111.5 1t99.5 1q33 0 97.5 1t105 1.5t96 -2.5t101.5 -10q2 -2 4 -2q8 3 15.5 -1t6.5 -13q-16 -116 -23 -256.5t-7 -236.5t2 -265t2 -244q-1 -77 -2 -176.5t-1 -139t1 -117t4 -187.5q1 -11 -8.5 -15.5t-19 0t-9.5 15.5 q-3 109 -4 188t-1 123t0.5 139.5t0.5 181.5q0 81 -1 238.5t-1 254t7 232t22 248.5q-60 9 -122.5 11.5t-164 0.5t-123.5 -2q-29 0 -84.5 -1t-102 -1t-87.5 2q-79 5 -130 15q-18 3 -13 19z" />
<glyph unicode="&#x5db;" horiz-adv-x="1314" d="M56.5 1282q-4.5 8 0 15.5t15.5 7.5q215 -6 645 2q39 0 125 2t136.5 2.5t122.5 -1t132 -7.5h4q14 -3 14 -17q-13 -509 17 -913q3 -71 12 -144q9 -72 -8 -100q-6 -11 -15.5 -20t-24.5 -15.5t-24.5 -10.5t-30.5 -7t-28.5 -4.5t-31.5 -3.5t-27 -2q-147 -14 -254 -19 q-260 -12 -390 -22q-86 -6 -161 -15q-40 -4 -54 -8q-3 -1 -8 -2t-8 -2q-6 -7 -15 -7t-15 7.5t-1 15.5q7 13 30.5 19.5t63.5 8.5l39 3q129 11 279 21q58 3 175.5 9t176.5 9q8 0 88 6q13 2 46 4t57 5.5t50.5 10.5t41.5 22t16 38q1 25 -4 68.5t-6 58.5q-2 26 -6 76t-6 76 q-9 110 -13 284q-3 301 2 541q-57 5 -126.5 6.5t-119.5 0.5t-130 -3t-121 -2q-430 -8 -645 -2q-11 0 -15.5 8z" />
<glyph unicode="&#x5dc;" horiz-adv-x="1394" d="M29 1249q0 16 6 126.5t2 168.5q0 9 8.5 12t17.5 -1t9 -13q5 -55 -0.5 -159t-5.5 -134q100 0 303.5 -2.5t326.5 -3t296.5 7t318.5 25.5q17 0 20 -10q29 -89 22 -301.5t-36 -300.5q-71 -208 -236 -293q-62 -31 -183 -68.5t-167 -56.5q-90 -33 -129 -82q-46 -62 -29 -154 q1 -9 -6.5 -15t-16.5 -4t-11 11q-27 167 116 244q60 31 181 69t161 54q115 47 168 100q67 69 109 176q32 87 43.5 298.5t-14.5 301.5q-146 -18 -320 -25.5t-299 -7t-328.5 3.5t-306.5 3q-10 0 -14 6.5t-2 13.5q-4 4 -4 10z" />
<glyph unicode="&#x5dd;" horiz-adv-x="1269" d="M37.5 1130.5q-2.5 80.5 11.5 126.5q2 5 8.5 10t10.5 5q313 9 424 4q128 -4 243 -4t240.5 2t198.5 2q1 0 7 -3t7 -3q27 -35 33.5 -96t-0.5 -154.5t-7 -108.5q0 -35 1 -123.5t0.5 -152t-3.5 -123.5q-11 -241 -28 -408q-6 -51 -12.5 -57.5t-63.5 -13.5q-20 -7 -97.5 -3 t-97.5 3q-40 -1 -186.5 -6.5t-226.5 -3.5q-101 4 -192.5 9t-133.5 8l-41 3q-2 0 -7.5 3.5t-6.5 6.5q-20 38 -28.5 162t-9.5 308.5t-1 187.5q-1 50 -11.5 132.5t-19.5 144.5t-11.5 142.5zM74.5 1115.5q3.5 -76.5 12.5 -137.5t19 -139.5t11 -125.5q2 -35 2 -189t6 -276 t22 -168q362 -30 654 -14q15 0 63.5 3.5t65.5 3t63 -4.5q47 -7 152 8q0 5 1 17t1 16q24 225 29 405q3 59 3.5 122.5t-0.5 151t-1 123.5q0 38 3.5 105t4.5 90q7 91 -21 133q-72 0 -196.5 -2t-238.5 -2t-241 4q-106 5 -407 -4q-11 -43 -7.5 -119.5z" />
<glyph unicode="&#x5de;" horiz-adv-x="1427" d="M61 1294q0 12 9.5 17.5t18.5 1t9 -16.5q1 -38 23.5 -75t49.5 -62.5t61.5 -60.5t52.5 -62q4 32 13.5 90.5t12.5 81.5t15 40.5t28 23.5q31 13 244 6q57 -2 157.5 -4t155.5 -4q173 -4 260 0q4 0 27 1.5t45.5 1.5t47.5 -0.5t42 -5.5t19 -14q14 -53 21 -153.5t7.5 -177 t-1 -203.5t-1.5 -148q1 -59 2.5 -144.5t1.5 -128.5t-1.5 -113.5t-6.5 -151.5q0 -6 -5 -11.5t-11 -5.5q-57 -2 -89 -1t-93 4t-89 4q-3 0 -47.5 0.5t-77 0.5t-71 -2t-53.5 -6l-15 -4q-21 -4 -23 13q-1 18 21 25q3 0 6 1q18 6 57.5 8t73.5 2t78 -1t51 -1q10 0 107.5 -5 t144.5 -3q4 76 5.5 144t1 111t-2 124t-2.5 141q0 29 1.5 140.5t1.5 184t-5 166.5t-16 150q-1 5 -3 9t-7 6t-8.5 3.5t-11 2t-11.5 0.5h-13.5h-13.5h-81q-44 -2 -396 -2q-61 -1 -179.5 4.5t-179 3t-67.5 -19.5q-2 -7 -4 -26t-2 -22q-34 -153 -41 -288q-10 -144 -41 -334 q-39 -235 -65 -410q-15 -111 -39 -219q-8 -36 -29 -105.5t-29 -105.5q-2 -11 -11.5 -13.5t-17.5 4t-5 17.5q7 32 27 102t28 109q25 111 39 217q26 175 65 410q2 11 9 53t9.5 57.5t8 52t7.5 58.5t4.5 52t2.5 57q0 18 4 76q-2 31 -24 62.5t-52 60t-60 58.5t-51.5 69.5 t-23.5 82.5z" />
<glyph unicode="&#x5df;" horiz-adv-x="182" d="M47.5 1270.5q-3.5 9.5 2.5 18t18 7.5q16 -4 24 -2l14 2h9q32 -5 32 -32q-1 -85 1 -385t-5 -385q-4 -91 -5.5 -200.5t-1.5 -182.5t0.5 -205.5t0.5 -188.5q0 -12 -9.5 -17t-18.5 0t-9 17q0 56 -0.5 189t-0.5 206t1.5 182t5.5 200q7 82 5.5 382t-0.5 381h-15q-18 0 -33 3 q-12 1 -15.5 10.5z" />
<glyph unicode="&#x5e0;" horiz-adv-x="1417" d="M86 7q-5 15 12 16q94 13 213 20t188 7.5t214 0.5q65 0 156 -8t157 -15.5t157 -9t156 10.5q0 13 0.5 37t0.5 38.5t-1 35t-4 38.5q-2 14 -10 62.5t-10 74.5q-4 48 -4 102.5t2 121t2 102.5q3 0 1 319l-1 320h-377q-11 0 -15.5 8t0 15.5t15.5 7.5h391q13 0 17 -13q6 -3 6 -10 v-659q-1 -27 -2.5 -79.5t-2 -85t0 -78t4.5 -83.5q2 -20 11 -69t11 -76q5 -37 0 -144q0 -10 -8 -13.5t-16 -0.5q-65 -12 -156 -10.5t-156.5 8t-156.5 14.5t-156 8h-67h-71.5t-66 -0.5t-71.5 -1t-66 -1.5t-71 -3t-65.5 -5t-71 -6.5t-66.5 -8.5q-18 -3 -23 13z" />
<glyph unicode="&#x5e1;" horiz-adv-x="1269" d="M46 1287q-4 13 11 16h2q30 5 61.5 5.5t76.5 -0.5t59 -1h354q56 0 166 -1t164 -1h98q17 1 55 4t54.5 3t54.5 -3q9 -2 11 -9t-3 -13t-14 -5q19 -49 20.5 -107.5t-5 -129.5t-5.5 -109q2 -34 8 -130.5t6.5 -130t-1.5 -130.5q-14 -200 -105 -318q-60 -76 -142 -135t-173 -78 q-164 -29 -357 -22q-46 3 -79.5 7.5t-79.5 15.5t-76.5 32.5t-42.5 52.5q-4 4 -4 9q-12 49 -8 147q2 56 -2 166q-2 58 -7 352q-4 127 -16 361q0 8 -2 29.5t-2 33t1.5 28.5t6.5 31q1 1 3.5 9.5t4.5 13.5q-31 0 -71 -4q-18 -3 -22 11zM156 1219q1 -27 4 -84t4 -84 q1 -37 4 -102.5t5 -119.5t3 -102q6 -316 6 -317q4 -103 2 -154q-4 -84 4 -127q2 0 5 -6q5 -28 29.5 -48.5t52.5 -30.5t72 -16.5t69 -7.5t63 -2q187 0 312 25q91 17 192 96q82 69 125 135q76 127 80 318q1 68 -6 193t-8 173q-1 33 5 100t3.5 119t-19.5 97q0 8 2 10 q-25 1 -69.5 -2.5t-63.5 -3.5h-102h-326q-1 0 -177 1t-177 -1q-11 0 -35.5 1t-38.5 1v-2q-20 -27 -20 -59z" />
<glyph unicode="&#x5e2;" horiz-adv-x="1249" d="M89.5 4q1.5 10 12.5 14q40 13 125.5 50.5t139.5 56.5q28 10 154.5 49.5t193.5 65.5q-15 32 -68.5 84t-109 98t-104 96t-56.5 80q-3 15 -6 107q-2 64 -6 200q-7 275 -19 379q-1 12 8 18t18.5 2t10.5 -16q10 -92 18 -383q1 -21 7 -198v-35t0.5 -28.5t2.5 -21t5 -20.5 t10 -17.5t16.5 -22t24.5 -25.5q19 -19 89 -80t122.5 -114.5t69.5 -90.5l14 6l2 2q62 26 119 47t88 32t47 19q20 9 50.5 27.5t53.5 30.5q0 22 1 46.5t2.5 54.5t2.5 48q0 8 -2.5 137.5t-1.5 251.5q1 41 6.5 162t6.5 170q0 12 9.5 17t18.5 0t9 -17q-1 -50 -6.5 -171t-6.5 -161 q-1 -123 1.5 -253t2.5 -138q-6 -159 -6 -160q0 -3 -4.5 -8.5t-7.5 -7.5q-31 -15 -63.5 -34t-47.5 -27q-68 -36 -258 -101q-74 -39 -225 -84t-174 -53q-58 -19 -144 -56.5t-120 -49.5q-12 -3 -19.5 4.5t-6 17.5z" />
<glyph unicode="&#x5e3;" horiz-adv-x="968" d="M50 1289q6 16 24 14q47 -9 105.5 -13t98.5 -4t111.5 1t99.5 1q33 0 97.5 1t105 1.5t96 -2.5t101.5 -10q2 -2 4 -2q8 3 15.5 -1t6.5 -13q-16 -116 -23 -256.5t-7 -236.5t2 -265t2 -244q-1 -77 -2 -176.5t-1 -139t1 -117t4 -187.5q1 -11 -8.5 -15.5t-19 0t-9.5 15.5 q-3 110 -4 189t-1 123t0.5 139t0.5 181q0 81 -1 238.5t-1 254t7 232t22 248.5q-60 9 -122.5 11.5t-164 0.5t-123.5 -2q-29 0 -84.5 -1t-102 -1t-87.5 2q2 -2 2 -6q1 -43 11.5 -147.5t8.5 -161.5q-8 -233 -10 -354q28 -1 155 -11q9 0 30 -1.5t32.5 -1.5h28.5t32 2.5t29 7.5 q17 5 22 -11t-12 -22q-24 -8 -49.5 -9.5t-61.5 1t-51 2.5q-23 1 -80.5 5.5t-89.5 4.5q-14 0 -18 12q-4 8 -4 13q0 160 10 362q2 56 -9 159.5t-11 149.5q0 6 2 8q-43 3 -97 13q-18 3 -13 19z" />
<glyph unicode="&#x5e4;" horiz-adv-x="1353" d="M75 25q-5 9 0 18.5t17 9.5q175 -1 494.5 -7.5t521.5 -6.5h113q0 46 -6.5 276.5t-2.5 354.5q0 32 4 90t5 78q14 280 18 405h-139q-184 1 -449.5 8t-353.5 9q0 -559 31 -836l252 -6q141 -4 163 -8q11 -3 13.5 -13.5t-4.5 -18.5t-19 -5q-17 4 -153 8q-45 1 -134.5 3 t-134.5 3q-14 0 -18 16q-33 278 -33 857q-51 2 -168 2q-12 0 -17 9t0 18t17 9q26 0 95.5 -1t93.5 -1q118 -2 270.5 -6t280 -6.5t270.5 -3.5q104 -2 155 0q8 2 14 -4.5t5 -13.5l-19 -426q-1 -18 -4.5 -76.5t-3.5 -89.5q-4 -128 2 -371t6 -279q0 -8 -5.5 -13t-12.5 -5h-131 q-203 0 -522.5 6.5t-493.5 7.5q-12 0 -17 9z" />
<glyph unicode="&#x5e5;" horiz-adv-x="884" d="M43 1264q-5 9 1 17.5t14.5 8.5t13.5 -8q22 -41 22 -147q0 -63 -8 -189q-3 -109 0 -180q26 -5 45 2t33.5 18.5t23.5 12.5q44 9 93 16t111 15l93 12q108 16 158 30q22 4 64 19l15 5q15 6 23 11t13 11q9 10 16 23.5t11 31.5t6 29.5t4.5 34t3.5 28.5q8 79 8 219q0 17 17.5 17 t17.5 -17q0 -142 -11 -229q-1 -5 -3 -23t-3 -25.5t-4 -23t-5.5 -25.5t-7.5 -22.5t-11 -22.5q-7 -15 -23.5 -27t-28.5 -17t-36 -13q-62 -22 -138 -35q-58 -10 -166 -24.5t-145 -20.5q-69 -7 -115 -22q-1 0 -8 -2.5t-12.5 -5t-13 -6.5t-13.5 -11t-10 -16q4 -100 2 -178 q-2 -100 -4.5 -163.5t-4 -74t-1.5 -42.5t2 -74t8 -165q0 -11 -8.5 -15.5t-17 0t-9.5 15.5q-6 127 -7.5 162t-2 69.5t1.5 41t4 69.5t4 162q2 85 -2.5 201.5t-1.5 208.5q1 20 4.5 85.5t3.5 100.5v24v27t-0.5 25t-2.5 26.5t-5 23t-8 22.5z" />
<glyph unicode="&#x5e6;" horiz-adv-x="1245" d="M40 4q-5 9 0 18t17 9q154 7 484 5.5t495 0.5q-97 140 -250 274q-53 49 -85 81.5t-80.5 97t-92.5 143.5q-40 73 -102.5 171t-106.5 181q-1 2 -14 29t-21.5 43.5t-24 47t-28 52t-27 45t-28 39.5t-24.5 23q-9 7 -8 17.5t9.5 14.5t18.5 -2q18 -12 39 -38t44 -66.5t37 -66.5 t36.5 -72t23.5 -47q29 -56 55.5 -100t56.5 -91.5t48 -77.5q32 50 139 66q3 0 69 8t118.5 17t120.5 22.5t113 33t58 42.5q41 76 41 360q0 12 9.5 17t18.5 0t9 -17q0 -295 -47 -379q-33 -63 -227 -100q-7 -1 -10 -2q-58 -10 -143.5 -21.5t-125.5 -17.5q-36 -5 -74.5 -20 t-39.5 -39q-1 -2 -2 -6t-2 -5q10 -15 24 -43q32 -59 63.5 -105.5t67.5 -86t57 -60.5t62 -59q178 -160 276 -311q6 -11 1.5 -20t-17.5 -9q-139 -4 -508.5 -1.5t-505.5 -2.5q-12 -1 -17 8z" />
<glyph unicode="&#x5e7;" horiz-adv-x="1343" d="M40.5 1297.5q4.5 9.5 16.5 9.5q135 4 305 0t295.5 -10t286 -2.5t301.5 20.5q46 6 62 -86.5t7 -212.5t-22 -220t-20 -118q-29 -85 -67.5 -145t-94 -102t-113.5 -69t-145 -55q-2 -1 -53.5 -16t-73 -23t-62.5 -24.5t-66.5 -34t-39.5 -37.5q-44 -54 -27 -139 q2 -12 -6.5 -18.5t-18 -3t-11.5 15.5q-10 58 5.5 105t37.5 74.5t76.5 55t83.5 37.5t95 30q33 10 48 15q83 25 138 49.5t107 63.5t88.5 95.5t63.5 137.5q29 83 36.5 292.5t-20.5 295.5h-2q-142 -17 -303 -20.5t-287 2.5t-296 10t-306 0q-12 0 -17.5 9t-1 18.5zM199 825 q-1 12 8 17.5t18.5 1t10.5 -16.5q6 -262 6 -606q0 -132 7 -311.5t7 -253.5q0 -12 -9 -17t-18.5 0t-9.5 17q0 74 -7 253.5t-7 311.5q0 344 -6 604z" />
<glyph unicode="&#x5e8;" horiz-adv-x="1253" d="M56 1300.5q3 17.5 22 14.5q58 -12 154 -12.5t157 2.5q83 1 431 -2t384 -5q8 0 13 -6.5t4 -13.5q-15 -131 -17 -318.5t2 -318.5q1 -65 -4.5 -197t-3.5 -236t19 -196q2 -12 -6.5 -18.5t-18.5 -3t-12 15.5q-17 93 -19 198t3.5 238t4.5 199q-5 448 13 621q-86 3 -396.5 5.5 t-396.5 0.5q-62 -3 -160 -2.5t-159 12.5q-17 5 -14 22.5z" />
<glyph unicode="&#x5e9;" horiz-adv-x="1345" d="M33 1284q0 12 9.5 17t18.5 0t9 -17q-1 -57 6.5 -166t7.5 -160q0 -33 -1.5 -98t-1 -112.5t4.5 -94.5q18 -211 18 -364q1 -33 3 -88t2.5 -79t-0.5 -81q47 0 63 -2l72 -1h172t224 -0.5t231 -0.5t188.5 0.5t101.5 1.5q36 20 92 65q6 54 9 238.5t0 331.5q-1 29 -5 118t-4 113 t2 113q1 35 6 129t5 137q0 12 9 17t18.5 0t9.5 -17q0 -43 -5 -137t-6 -131q-1 -99 -2 -112.5t3 -111.5t5 -118q3 -149 0 -343.5t-10 -238.5q-1 -10 -55 -50t-64 -40q-37 -3 -513 -1.5t-488 3.5q-10 1 -26 1t-32.5 -0.5t-19.5 -0.5q-7 0 -12.5 6.5t-5.5 12.5q1 28 -4 266 q0 141 -19 360q-4 48 -4.5 96t1 113.5t1.5 99.5q0 51 -7.5 160t-6.5 166zM625 1284q0 12 9.5 17t18.5 0t9 -17q0 -51 6.5 -161t5.5 -169q0 -58 4 -171t4 -171q0 -12 -9 -17t-18.5 0t-9.5 17q0 59 -4 172t-4 170q1 59 -5.5 169.5t-6.5 160.5z" />
<glyph unicode="&#x5ea;" horiz-adv-x="1474" d="M62 46.5q4 9.5 16 10.5q86 8 182 2q2 48 -8.5 136.5t-11.5 117.5q-6 185 -51 533.5t-52 417.5h-55q-12 1 -16.5 10.5t1 18t17.5 7.5q36 -2 137 1.5t103 3.5q79 -1 208 -6.5t177 -6.5q73 -2 221.5 2.5t212.5 3.5q21 -1 50.5 -1.5t104.5 -1.5t86 1q8 0 13.5 -5.5t5.5 -14.5 q-2 -50 -2.5 -142.5t-0.5 -159.5l1 -67q-1 -37 -1.5 -139.5t-2.5 -169.5q-4 -112 4 -338q1 -30 -2.5 -121.5t4.5 -126.5q1 -12 -8 -18t-18.5 -2t-10.5 16q-8 36 -4.5 128.5t2.5 121.5q-8 228 -4 342q4 117 4 307q-2 229 2 350l-225 5q-63 1 -212.5 -4t-221.5 -3 q-47 1 -176 6.5t-207 6.5q-28 0 -150 -4q7 -69 51.5 -417t50.5 -534q1 -29 12.5 -125.5t8.5 -150.5q0 -8 -7 -13t-14 -4q-111 10 -194 0q-12 -1 -18 8t-2 18.5z" />
<glyph unicode="&#x5f3;" horiz-adv-x="204" d="M88 1620q-1 12 8 17.5t18.5 1t10.5 -16.5q3 -48 1 -144.5t1 -144.5q1 -12 -8 -17.5t-18.5 -1t-10.5 16.5q-2 44 -0.5 144.5t-1.5 144.5z" />
<glyph unicode="&#x5f4;" horiz-adv-x="311" d="M53 1335q0 119 7.5 192t7.5 95q0 12 9 17t18 0t9 -17q0 -22 -7 -95t-7 -192q0 -12 -9 -17t-18.5 0t-9.5 17zM211 1620q-1 12 8 17.5t18.5 1t10.5 -16.5q3 -48 1 -144.5t1 -144.5q1 -12 -8 -17.5t-18.5 -1t-10.5 16.5q-2 44 -0.5 144.5t-1.5 144.5z" />
<glyph unicode="&#x2000;" horiz-adv-x="820" />
<glyph unicode="&#x2001;" horiz-adv-x="1641" />
<glyph unicode="&#x2002;" horiz-adv-x="820" />
<glyph unicode="&#x2003;" horiz-adv-x="1641" />
<glyph unicode="&#x2004;" horiz-adv-x="547" />
<glyph unicode="&#x2005;" horiz-adv-x="410" />
<glyph unicode="&#x2006;" horiz-adv-x="273" />
<glyph unicode="&#x2007;" horiz-adv-x="273" />
<glyph unicode="&#x2008;" horiz-adv-x="205" />
<glyph unicode="&#x2009;" horiz-adv-x="328" />
<glyph unicode="&#x200a;" horiz-adv-x="91" />
<glyph unicode="&#x2010;" horiz-adv-x="675" d="M35 607q-2 20 14 22h6q124 -15 287 -11q22 0 120.5 3.5t151.5 3.5q20 0 20 -21.5t-20 -21.5q-52 0 -149.5 -3t-120.5 -4q-179 -4 -289 9q-19 3 -20 23z" />
<glyph unicode="&#x2011;" horiz-adv-x="675" d="M35 607q-2 20 14 22h6q124 -15 287 -11q22 0 120.5 3.5t151.5 3.5q20 0 20 -21.5t-20 -21.5q-52 0 -149.5 -3t-120.5 -4q-179 -4 -289 9q-19 3 -20 23z" />
<glyph unicode="&#x2012;" horiz-adv-x="675" d="M35 607q-2 20 14 22h6q124 -15 287 -11q22 0 120.5 3.5t151.5 3.5q20 0 20 -21.5t-20 -21.5q-52 0 -149.5 -3t-120.5 -4q-179 -4 -289 9q-19 3 -20 23z" />
<glyph unicode="&#x2013;" horiz-adv-x="1099" d="M34 607q-3 20 24 22h11q211 -15 490 -11q38 0 206 3.5t259 3.5q34 0 34 -21.5t-34 -21.5q-89 0 -255.5 -3t-206.5 -4q-305 -4 -493 9q-33 3 -35 23z" />
<glyph unicode="&#x2014;" horiz-adv-x="2123" d="M35 607q-7 20 48 22h20q424 -15 981 -11q75 0 412 3.5t518 3.5q68 0 68 -21.5t-68 -21.5q-178 0 -511.5 -3t-411.5 -4q-612 -4 -988 9q-65 3 -68 23z" />
<glyph unicode="&#x202f;" horiz-adv-x="328" />
<glyph unicode="&#x205f;" horiz-adv-x="410" />
<glyph unicode="&#x20ac;" horiz-adv-x="1167" d="M134.5 589q-5.5 11 0 22.5t19.5 11.5h131q0 9 1 23t1 20v55h-133q-14 0 -19.5 11.5t0 22.5t19.5 11h129q-3 47 -4 73t-1.5 83t2 94t9.5 87.5t19 82.5t33 59t48 37q76 27 136 -9t79 -112q3 -11 -4.5 -18t-17.5 -4.5t-13 14.5q-16 61 -61.5 88.5t-106.5 5.5 q-36 -13 -57.5 -69t-26.5 -137.5t-4 -145t6 -129.5h152q14 0 19.5 -11t0 -22.5t-19.5 -11.5h-149q2 -23 2 -57q0 -6 -1 -19t-1 -22h149q14 0 19.5 -11.5t0 -22.5t-19.5 -11h-149q0 -53 3 -196.5t3 -158.5l1 -14q1 -14 3 -29.5t6.5 -37t13 -40.5t20 -35t29.5 -25.5t41 -8.5 q45 2 73 11.5t42.5 28t19.5 37t9 50.5q2 12 11.5 15.5t18 -2t7.5 -17.5q-4 -37 -12 -60.5t-26 -47.5t-53 -37t-88 -15q-42 -1 -73.5 20.5t-47.5 57.5t-23.5 72.5t-8.5 74.5q0 15 -3 158.5t-3 198.5h-131q-14 0 -19.5 11zM287 721h35h-35z" />
<glyph unicode="&#x2122;" horiz-adv-x="854" d="M59 1255.5q-5 9.5 0 18.5t17 8q88 0 176 -6q7 4 14 0q26 -2 79.5 -7t80.5 -7q12 -1 16 -10.5t-2 -18.5t-18 -8q-146 12 -148 12q-10 -87 -10 -231q0 -12 -9 -17t-18.5 0t-9.5 17q0 136 11 235q-110 4 -162 4q-12 1 -17 10.5zM473 1225q0 25 23.5 34t40.5 -8 q55 -59 98 -90q11 10 35 29.5t41.5 36t31.5 33.5q20 22 43 9.5t23 -34.5v-229q0 -12 -9.5 -17t-18.5 0t-9 17l-2 229q-19 -25 -65 -63.5t-54 -45.5q-6 -3 -11 -4t-15 4.5t-18 10t-19.5 14.5t-19.5 17t-19 17.5t-17 17t-13 13.5l-9 9q0 -139 12 -209q1 -12 -7.5 -18t-18 -3 t-11.5 15q-12 72 -12 215z" />
<glyph unicode="&#xe000;" horiz-adv-x="1024" d="M0 0z" />
<glyph unicode="&#xfb1d;" horiz-adv-x="270" d="M30.5 1268.5q-3.5 7.5 1 14t13.5 5.5q80 -3 160 0q18 3 26 -14q5 -10 5 -12q-9 -163 -5 -371q1 -9 -7 -13t-16.5 -1t-8.5 12q-4 210 2 371q-77 -3 -158 0q-9 1 -12.5 8.5zM199 -98q0 18 18 18q21 0 21 -18q0 -9 -6.5 -15t-14.5 -6t-13 6t-5 15z" />
<glyph unicode="&#xfb2a;" horiz-adv-x="1345" d="M33 1284q0 12 9.5 17t18.5 0t9 -17q-1 -57 6.5 -166t7.5 -160q0 -33 -1.5 -98t-1 -112.5t4.5 -94.5q18 -211 18 -364q1 -33 3 -88t2.5 -79t-0.5 -81q47 0 63 -2l72 -1h172t224 -0.5t231 -0.5t188.5 0.5t101.5 1.5q36 20 92 65q6 54 9 238.5t0 331.5q-1 29 -5 118t-4 113 t2 113q1 35 6 129t5 137q0 12 9 17t18.5 0t9.5 -17q0 -43 -5 -137t-6 -131q-1 -99 -2 -112.5t3 -111.5t5 -118q3 -149 0 -343.5t-10 -238.5q-1 -10 -55 -50t-64 -40q-37 -3 -513 -1.5t-488 3.5q-10 1 -26 1t-32.5 -0.5t-19.5 -0.5q-7 0 -12.5 6.5t-5.5 12.5q1 28 -4 266 q0 141 -19 360q-4 48 -4.5 96t1 113.5t1.5 99.5q0 51 -7.5 160t-6.5 166zM625 1284q0 12 9.5 17t18.5 0t9 -17q0 -51 6.5 -161t5.5 -169q0 -58 4 -171t4 -171q0 -12 -9 -17t-18.5 0t-9.5 17q0 59 -4 172t-4 170q1 59 -5.5 169.5t-6.5 160.5zM1270 1458q0 9 5 15t13 6 t14.5 -6t6.5 -15t-6.5 -14.5t-14.5 -5.5q-18 0 -18 20z" />
<glyph unicode="&#xfb2b;" horiz-adv-x="1345" d="M20 1458q0 9 5.5 15t13.5 6t14 -6t6 -15t-6 -14.5t-14 -5.5t-13.5 5.5t-5.5 14.5zM33 1284q0 12 9.5 17t18.5 0t9 -17q-1 -57 6.5 -166t7.5 -160q0 -33 -1.5 -98t-1 -112.5t4.5 -94.5q18 -211 18 -364q1 -33 3 -88t2.5 -79t-0.5 -81q47 0 63 -2l72 -1h172t224 -0.5 t231 -0.5t188.5 0.5t101.5 1.5q36 20 92 65q6 54 9 238.5t0 331.5q-1 29 -5 118t-4 113t2 113q1 35 6 129t5 137q0 12 9 17t18.5 0t9.5 -17q0 -43 -5 -137t-6 -131q-1 -99 -2 -112.5t3 -111.5t5 -118q3 -149 0 -343.5t-10 -238.5q-1 -10 -55 -50t-64 -40q-37 -3 -513 -1.5 t-488 3.5q-10 1 -26 1t-32.5 -0.5t-19.5 -0.5q-7 0 -12.5 6.5t-5.5 12.5q1 28 -4 266q0 141 -19 360q-4 48 -4.5 96t1 113.5t1.5 99.5q0 51 -7.5 160t-6.5 166zM625 1284q0 12 9.5 17t18.5 0t9 -17q0 -51 6.5 -161t5.5 -169q0 -58 4 -171t4 -171q0 -12 -9 -17t-18.5 0 t-9.5 17q0 59 -4 172t-4 170q1 59 -5.5 169.5t-6.5 160.5z" />
<glyph unicode="&#xfb2c;" horiz-adv-x="1345" d="M33 1284q0 12 9.5 17t18.5 0t9 -17q-1 -57 6.5 -166t7.5 -160q0 -33 -1.5 -98t-1 -112.5t4.5 -94.5q18 -211 18 -364q1 -33 3 -88t2.5 -79t-0.5 -81q47 0 63 -2l72 -1h172t224 -0.5t231 -0.5t188.5 0.5t101.5 1.5q36 20 92 65q6 54 9 238.5t0 331.5q-1 29 -5 118t-4 113 t2 113q1 35 6 129t5 137q0 12 9 17t18.5 0t9.5 -17q0 -43 -5 -137t-6 -131q-1 -99 -2 -112.5t3 -111.5t5 -118q3 -149 0 -343.5t-10 -238.5q-1 -10 -55 -50t-64 -40q-37 -3 -513 -1.5t-488 3.5q-10 1 -26 1t-32.5 -0.5t-19.5 -0.5q-7 0 -12.5 6.5t-5.5 12.5q1 28 -4 266 q0 141 -19 360q-4 48 -4.5 96t1 113.5t1.5 99.5q0 51 -7.5 160t-6.5 166zM625 1284q0 12 9.5 17t18.5 0t9 -17q0 -51 6.5 -161t5.5 -169q0 -58 4 -171t4 -171q0 -12 -9 -17t-18.5 0t-9.5 17q0 59 -4 172t-4 170q1 59 -5.5 169.5t-6.5 160.5zM956 475q0 9 5.5 15t13.5 6 t14 -6t6 -15t-6 -14.5t-14 -5.5t-13.5 5.5t-5.5 14.5zM1274 1458q0 9 5 15t13 6t14.5 -6t6.5 -15t-6.5 -14.5t-14.5 -5.5q-18 0 -18 20z" />
<glyph unicode="&#xfb2d;" horiz-adv-x="1345" d="M33 1284q0 12 9.5 17t18.5 0t9 -17q-1 -57 6.5 -166t7.5 -160q0 -33 -1.5 -98t-1 -112.5t4.5 -94.5q18 -211 18 -364q1 -33 3 -88t2.5 -79t-0.5 -81q47 0 63 -2l72 -1h172t224 -0.5t231 -0.5t188.5 0.5t101.5 1.5q36 20 92 65q6 54 9 238.5t0 331.5q-1 29 -5 118t-4 113 t2 113q1 35 6 129t5 137q0 12 9 17t18.5 0t9.5 -17q0 -43 -5 -137t-6 -131q-1 -99 -2 -112.5t3 -111.5t5 -118q3 -149 0 -343.5t-10 -238.5q-1 -10 -55 -50t-64 -40q-37 -3 -513 -1.5t-488 3.5q-10 1 -26 1t-32.5 -0.5t-19.5 -0.5q-7 0 -12.5 6.5t-5.5 12.5q1 28 -4 266 q0 141 -19 360q-4 48 -4.5 96t1 113.5t1.5 99.5q0 51 -7.5 160t-6.5 166zM35 1458q0 9 5 15t13 6t14.5 -6t6.5 -15t-6.5 -14.5t-14.5 -5.5q-18 0 -18 20zM625 1284q0 12 9.5 17t18.5 0t9 -17q0 -51 6.5 -161t5.5 -169q0 -58 4 -171t4 -171q0 -12 -9 -17t-18.5 0t-9.5 17 q0 59 -4 172t-4 170q1 59 -5.5 169.5t-6.5 160.5zM956 475q0 9 5.5 15t13.5 6t14 -6t6 -15t-6 -14.5t-14 -5.5t-13.5 5.5t-5.5 14.5z" />
<glyph unicode="&#xfb2e;" horiz-adv-x="1449" d="M55 1292q0 27 25 27q8 0 13 -3.5t7 -7.5t3 -8l1 -4q5 -72 99 -155q95 -80 215 -140q97 -51 284.5 -130t239.5 -103q10 -5 31 -14.5t31 -14.5q3 99 1 179t1.5 179t17.5 177q1 9 10 11t17 -4t6 -15q-17 -106 -17.5 -310t-1.5 -233q106 -51 179.5 -106.5t109.5 -131.5 q21 -51 31 -92q2 -7 14.5 -53t16.5 -70q22 -116 22 -254q0 -15 -17.5 -15t-17.5 15q0 171 -28 283q-3 12 -10 41.5t-11.5 46t-12 40.5t-17 44t-21.5 37q-35 50 -86.5 87.5t-128.5 78.5q-120 62 -246 117q-29 12 -126 52.5t-141.5 60t-116.5 55t-128 69.5q-164 103 -211 191 q2 -40 20.5 -264t10.5 -343q-15 -203 -2 -321q25 -172 -6 -289q-2 -9 -11.5 -11t-17 4t-4.5 15q12 47 14 103.5t-1 96.5t-11 105q-5 38 -6 85.5t0 72.5t5 88.5t5 75.5q7 120 -13 341t-20 314zM544 -138q-2 10 5 17.5t18 3.5q46 -12 152 2q38 3 104.5 -1.5t87.5 -4.5 q12 0 17 -9.5t0 -18.5t-17 -9q-21 0 -86.5 4.5t-101.5 1.5q-116 -13 -166 0q-11 4 -13 14z" />
<glyph unicode="&#xfb2f;" horiz-adv-x="1449" d="M55 1292q0 27 25 27q8 0 13 -3.5t7 -7.5t3 -8l1 -4q5 -72 99 -155q95 -80 215 -140q97 -51 284.5 -130t239.5 -103q10 -5 31 -14.5t31 -14.5q3 99 1 179t1.5 179t17.5 177q1 9 10 11t17 -4t6 -15q-17 -106 -17.5 -310t-1.5 -233q106 -51 179.5 -106.5t109.5 -131.5 q21 -51 31 -92q2 -7 14.5 -53t16.5 -70q22 -116 22 -254q0 -15 -17.5 -15t-17.5 15q0 171 -28 283q-3 12 -10 41.5t-11.5 46t-12 40.5t-17 44t-21.5 37q-35 50 -86.5 87.5t-128.5 78.5q-120 62 -246 117q-29 12 -126 52.5t-141.5 60t-116.5 55t-128 69.5q-164 103 -211 191 q2 -40 20.5 -264t10.5 -343q-15 -203 -2 -321q25 -172 -6 -289q-2 -9 -11.5 -11t-17 4t-4.5 15q12 47 14 103.5t-1 96.5t-11 105q-5 38 -6 85.5t0 72.5t5 88.5t5 75.5q7 120 -13 341t-20 314zM541 -130q5 18 22 13q46 -14 152 0q38 3 104.5 -1.5t87.5 -4.5q12 0 17 -9.5 t0 -18.5t-17 -9q-21 0 -81.5 4t-92.5 2v-2q-5 -9 -0.5 -43t4.5 -41q0 -12 -9.5 -17t-18.5 0t-9 17q0 10 -3 38.5t-1 45.5q-92 -12 -143 2q-17 6 -12 24z" />
<glyph unicode="&#xfb30;" horiz-adv-x="1449" d="M55 1292q0 27 25 27q8 0 13 -3.5t7 -7.5t3 -8l1 -4q5 -72 99 -155q95 -80 215 -140q97 -51 284.5 -130t239.5 -103q10 -5 31 -14.5t31 -14.5q3 99 1 179t1.5 179t17.5 177q1 9 10 11t17 -4t6 -15q-17 -106 -17.5 -310t-1.5 -233q106 -51 179.5 -106.5t109.5 -131.5 q21 -51 31 -92q2 -7 14.5 -53t16.5 -70q22 -116 22 -254q0 -15 -17.5 -15t-17.5 15q0 171 -28 283q-3 12 -10 41.5t-11.5 46t-12 40.5t-17 44t-21.5 37q-35 50 -86.5 87.5t-128.5 78.5q-120 62 -246 117q-29 12 -126 52.5t-141.5 60t-116.5 55t-128 69.5q-164 103 -211 191 q2 -40 20.5 -264t10.5 -343q-15 -203 -2 -321q25 -172 -6 -289q-2 -9 -11.5 -11t-17 4t-4.5 15q12 47 14 103.5t-1 96.5t-11 105q-5 38 -6 85.5t0 72.5t5 88.5t5 75.5q7 120 -13 341t-20 314zM1018 1458q0 9 5 15t13 6t14.5 -6t6.5 -15t-6.5 -14.5t-14.5 -5.5q-18 0 -18 20z " />
<glyph unicode="&#xfb31;" horiz-adv-x="1542" d="M68.5 24.5q-3.5 7.5 0.5 15t15 7.5q111 -8 385.5 -4.5t386.5 0.5q187 -6 188 -6q112 -10 136 -10v6q16 140 16 311.5t-9 312.5t-13 312.5t4 312.5q-32 1 -71 -1t-65 -4t-74 -6.5t-67 -6.5q-101 -9 -137 -7q-26 0 -75 6t-58 7q-77 8 -261 2t-261 -2q-11 1 -15.5 8.5 t0 14.5t15.5 7q75 -3 261 3t261 -3q114 -14 145 -14q90 4 139 8q191 21 283 17q6 0 11 -4.5t5 -10.5q-12 -171 -2 -422t17.5 -421t-15.5 -420v-4q19 1 62.5 4t69.5 4.5t62 -0.5t65 -8q12 -4 12 -11q1 -1 2 -3t2 -3q9 -13 -7 -19q-15 -6 -24 5l-2 4q-59 7 -92.5 6t-93.5 -5.5 t-92 -4.5q-31 0 -86 4.5t-76 5.5q-88 3 -174 6q-102 2 -380 -2t-380 4q-10 1 -13.5 8.5zM547 680q0 20 18 20q8 0 14.5 -5.5t6.5 -14.5t-6.5 -15t-14.5 -6t-13 6t-5 15z" />
<glyph unicode="&#xfb32;" horiz-adv-x="944" d="M57 0q-6 11 6 18q208 110 383 228q132 89 199 151q28 28 41 42t30 41.5t19 51.5v3q-12 74 -14 114q-5 84 2.5 316.5t-8.5 316.5q-51 -1 -157 -7t-156 -6.5t-156 9.5q-11 2 -13 10t4.5 14.5t16.5 4.5q105 -10 158 -9t158.5 7.5t158.5 7.5q16 0 16 -13q3 -3 3 -4 q18 -91 10.5 -329.5t-0.5 -329.5q11 -160 78 -324q26 -64 37.5 -96t23.5 -86t10 -100q0 -13 -17.5 -13t-17.5 13q1 30 -2.5 60t-15 67.5t-18 56t-25.5 66.5t-23 57q-20 51 -38 129q-17 -29 -60 -72q-78 -76 -205 -162q-203 -136 -403 -239q-17 -8 -25 6zM465 680q0 20 18 20 q8 0 14.5 -5.5t6.5 -14.5t-6.5 -15t-14.5 -6t-13 6t-5 15z" />
<glyph unicode="&#xfb33;" horiz-adv-x="1499" d="M61.5 1289q-4.5 8 0.5 16t16 8h4q113 -3 341 -10.5t341 -10.5q497 -18 668 -18q11 0 15.5 -8t-0.5 -15.5t-17 -7.5h-5q-135 0 -409 8q-10 -73 -4.5 -325.5t4.5 -323.5q-5 -248 -2 -319q1 -31 4.5 -92.5t4 -92.5t-2.5 -92q-2 -15 -19.5 -15t-17.5 15q3 61 2.5 92t-4 92.5 t-4.5 92.5q-3 26 -0.5 159.5t2.5 159.5q1 73 -4.5 325.5t4.5 323.5q-831 28 -901 29q-12 1 -16.5 9zM588 680q0 20 18 20q8 0 14.5 -5.5t6.5 -14.5t-6.5 -15t-14.5 -6t-13 6t-5 15z" />
<glyph unicode="&#xfb34;" horiz-adv-x="1830" d="M54 1285q0 15 18 15q278 0 835 6.5t836 6.5q6 0 10 -4q8 -4 8 -13q-1 -22 -6 -104.5t-6.5 -114t-4.5 -102t-3.5 -114t0 -102t2.5 -110.5q2 -48 7 -102.5t13 -118.5t11 -100q10 -109 10 -322q0 -15 -17.5 -15t-17.5 15q0 216 -10 322q-3 25 -12 98t-14 123.5t-7 99.5 q-1 34 -2 68.5t-0.5 74t1 66.5t2 74t2 66.5t3.5 73.5t4 66.5t4.5 73.5t3.5 68q-276 0 -826 -5t-826 -5q-18 0 -18 15zM606 711q0 12 9 17t18.5 0t9.5 -17q0 -114 15.5 -340t15.5 -338q0 -12 -9 -17t-18.5 0t-9.5 17q0 112 -15.5 338t-15.5 340zM1325 680q0 20 18 20 q8 0 14.5 -5.5t6.5 -14.5t-6.5 -15t-14.5 -6t-13 6t-5 15z" />
<glyph unicode="&#xfb35;" horiz-adv-x="475" d="M44.5 1283.5q-1.5 8.5 5.5 14.5t16 2q19 -7 45.5 -10t45.5 -3.5t51.5 0.5t43.5 1q37 3 89.5 2.5t86.5 -12.5q18 0 18 -14q-15 -103 -16.5 -221.5t2.5 -258t2 -221.5q-1 -54 -9 -191t-7 -235.5t18 -189.5q2 -9 -6 -15t-17.5 -4t-11.5 11q-17 93 -18 192.5t7 238t9 193.5 q1 79 -2.5 217t-2.5 254t14 217q-24 6 -52 7.5t-70 0t-53 -1.5q-8 0 -34 -0.5t-39 0t-34.5 1.5t-38.5 4.5t-32 9.5q-9 3 -10.5 11.5zM219 680q0 9 5.5 14.5t13.5 5.5t14 -5.5t6 -14.5t-6 -15t-14 -6t-13.5 6t-5.5 15z" />
<glyph unicode="&#xfb38;" horiz-adv-x="1093" d="M63 1296q0 12 9.5 17t18.5 0t9 -17q-4 -237 2 -323q4 -55 5.5 -164t5.5 -164t1 -169.5t1 -166.5q4 -35 2.5 -140.5t-0.5 -125.5q97 1 275 1.5t324 1.5t275 3q3 40 4 122t4 122q4 56 -1 236t-5 200q-1 66 -4.5 245t-3.5 279q-70 2 -375 2q-4 -32 -10.5 -124.5 t-11.5 -137.5q-7 -52 -20 -120.5t-15 -88.5q-1 -12 -10.5 -16t-18.5 2t-8 18q2 20 15 88.5t20 120.5q5 41 12 141.5t12 137.5q4 16 19 16q377 0 412 -2q16 -4 16 -18q0 -104 3.5 -290t4.5 -253q0 -19 5 -200.5t1 -237.5q-3 -43 -4 -130.5t-4 -131.5q-2 -6 -7 -11.5t-11 -5.5 q-4 0 -207.5 -2.5t-358.5 -4t-211 0.5h-4h-16h-47h-45h-17q-22 0 -24 17q-2 26 -0.5 129t-1.5 153q-4 55 -1 169t-1 169t-5 164t-5 164q-7 98 -3 325zM690 557q0 9 5.5 15t13.5 6t14 -6t6 -15t-6 -14.5t-14 -5.5t-13.5 5.5t-5.5 14.5z" />
<glyph unicode="&#xfb39;" horiz-adv-x="270" d="M30.5 1268.5q-3.5 7.5 1 14t13.5 5.5q80 -3 160 0q18 3 26 -14q5 -10 5 -12q-9 -163 -5 -371q1 -9 -7 -13t-16.5 -1t-8.5 12q-4 210 2 371q-77 -3 -158 0q-9 1 -12.5 8.5zM76 1069q0 9 5 15t13 6t14.5 -6t6.5 -15t-6.5 -14.5t-14.5 -5.5q-18 0 -18 20z" />
<glyph unicode="&#xfb3b;" horiz-adv-x="1314" d="M56.5 1282q-4.5 8 0 15.5t15.5 7.5q215 -6 645 2q39 0 125 2t136.5 2.5t122.5 -1t132 -7.5h4q14 -3 14 -17q-13 -509 17 -913q3 -71 12 -144q9 -72 -8 -100q-6 -11 -15.5 -20t-24.5 -15.5t-24.5 -10.5t-30.5 -7t-28.5 -4.5t-31.5 -3.5t-27 -2q-147 -14 -254 -19 q-260 -12 -390 -22q-86 -6 -161 -15q-40 -4 -54 -8q-3 -1 -8 -2t-8 -2q-6 -7 -15 -7t-15 7.5t-1 15.5q7 13 30.5 19.5t63.5 8.5l39 3q129 11 279 21q58 3 175.5 9t176.5 9q8 0 88 6q13 2 46 4t57 5.5t50.5 10.5t41.5 22t16 38q1 25 -4 68.5t-6 58.5q-2 26 -6 76t-6 76 q-9 110 -13 284q-3 301 2 541q-57 5 -126.5 6.5t-119.5 0.5t-130 -3t-121 -2q-430 -8 -645 -2q-11 0 -15.5 8zM547 680q0 20 18 20q8 0 14.5 -5.5t6.5 -14.5t-6.5 -15t-14.5 -6t-13 6t-5 15z" />
<glyph unicode="&#xfb3c;" horiz-adv-x="1394" d="M29 1249q0 16 6 126.5t2 168.5q0 9 8.5 12t17.5 -1t9 -13q5 -55 -0.5 -159t-5.5 -134q100 0 303.5 -2.5t326.5 -3t296.5 7t318.5 25.5q17 0 20 -10q29 -89 22 -301.5t-36 -300.5q-71 -208 -236 -293q-62 -31 -183 -68.5t-167 -56.5q-90 -33 -129 -82q-46 -62 -29 -154 q1 -9 -6.5 -15t-16.5 -4t-11 11q-27 167 116 244q60 31 181 69t161 54q115 47 168 100q67 69 109 176q32 87 43.5 298.5t-14.5 301.5q-146 -18 -320 -25.5t-299 -7t-328.5 3.5t-306.5 3q-10 0 -14 6.5t-2 13.5q-4 4 -4 10zM547 680q0 20 18 20q8 0 14.5 -5.5t6.5 -14.5 t-6.5 -15t-14.5 -6t-13 6t-5 15z" />
<glyph unicode="&#xfb3e;" horiz-adv-x="1427" d="M61 1294q0 12 9.5 17.5t18.5 1t9 -16.5q1 -38 23.5 -75t49.5 -62.5t61.5 -60.5t52.5 -62q4 32 13.5 90.5t12.5 81.5t15 40.5t28 23.5q31 13 244 6q57 -2 157.5 -4t155.5 -4q173 -4 260 0q4 0 27 1.5t45.5 1.5t47.5 -0.5t42 -5.5t19 -14q14 -53 21 -153.5t7.5 -177 t-1 -203.5t-1.5 -148q1 -59 2.5 -144.5t1.5 -128.5t-1.5 -113.5t-6.5 -151.5q0 -6 -5 -11.5t-11 -5.5q-57 -2 -89 -1t-93 4t-89 4q-3 0 -47.5 0.5t-77 0.5t-71 -2t-53.5 -6l-15 -4q-21 -4 -23 13q-1 18 21 25q3 0 6 1q18 6 57.5 8t73.5 2t78 -1t51 -1q10 0 107.5 -5 t144.5 -3q4 76 5.5 144t1 111t-2 124t-2.5 141q0 29 1.5 140.5t1.5 184t-5 166.5t-16 150q-1 5 -3 9t-7 6t-8.5 3.5t-11 2t-11.5 0.5h-13.5h-13.5h-81q-44 -2 -396 -2q-61 -1 -179.5 4.5t-179 3t-67.5 -19.5q-2 -7 -4 -26t-2 -22q-34 -153 -41 -288q-10 -144 -41 -334 q-39 -235 -65 -410q-15 -111 -39 -219q-8 -36 -29 -105.5t-29 -105.5q-2 -11 -11.5 -13.5t-17.5 4t-5 17.5q7 32 27 102t28 109q25 111 39 217q26 175 65 410q2 11 9 53t9.5 57.5t8 52t7.5 58.5t4.5 52t2.5 57q0 18 4 76q-2 31 -24 62.5t-52 60t-60 58.5t-51.5 69.5 t-23.5 82.5zM752 680q0 20 18 20q8 0 14.5 -5.5t6.5 -14.5t-6.5 -15t-14.5 -6t-13 6t-5 15z" />
<glyph unicode="&#xfb40;" horiz-adv-x="1417" d="M86 7q-5 15 12 16q94 13 213 20t188 7.5t214 0.5q65 0 156 -8t157 -15.5t157 -9t156 10.5q0 13 0.5 37t0.5 38.5t-1 35t-4 38.5q-2 14 -10 62.5t-10 74.5q-4 48 -4 102.5t2 121t2 102.5q3 0 1 319l-1 320h-377q-11 0 -15.5 8t0 15.5t15.5 7.5h391q13 0 17 -13q6 -3 6 -10 v-659q-1 -27 -2.5 -79.5t-2 -85t0 -78t4.5 -83.5q2 -20 11 -69t11 -76q5 -37 0 -144q0 -10 -8 -13.5t-16 -0.5q-65 -12 -156 -10.5t-156.5 8t-156.5 14.5t-156 8h-67h-71.5t-66 -0.5t-71.5 -1t-66 -1.5t-71 -3t-65.5 -5t-71 -6.5t-66.5 -8.5q-18 -3 -23 13zM1100 680 q0 20 18 20q8 0 14.5 -5.5t6.5 -14.5t-6.5 -15t-14.5 -6t-13 6t-5 15z" />
<glyph unicode="&#xfb41;" horiz-adv-x="1269" d="M46 1287q-4 13 11 16h2q30 5 61.5 5.5t76.5 -0.5t59 -1h354q56 0 166 -1t164 -1h98q17 1 55 4t54.5 3t54.5 -3q9 -2 11 -9t-3 -13t-14 -5q19 -49 20.5 -107.5t-5 -129.5t-5.5 -109q2 -34 8 -130.5t6.5 -130t-1.5 -130.5q-14 -200 -105 -318q-60 -77 -141.5 -135.5 t-173.5 -77.5q-148 -29 -357 -22q-46 3 -79.5 7.5t-79.5 15.5t-76.5 32.5t-42.5 52.5q-4 4 -4 9q-12 49 -8 147q2 56 -2 166q-2 58 -7 352q-4 127 -16 361q0 8 -2 29.5t-2 33t1.5 28.5t6.5 31q1 1 3.5 9.5t4.5 13.5q-31 0 -71 -4q-18 -3 -22 11zM156 1219q1 -27 4 -84t4 -84 q1 -37 4 -102.5t5 -119.5t3 -102q6 -316 6 -317q4 -103 2 -154q-4 -84 4 -127q2 0 5 -6q5 -28 29.5 -48.5t52.5 -30.5t72 -16.5t69 -7.5t63 -2q187 0 312 25q91 17 192 96q82 69 125 135q76 127 80 318q1 68 -6 193t-8 173q-1 33 5 100t3.5 119t-19.5 97q0 8 2 10 q-25 1 -69.5 -2.5t-63.5 -3.5h-102h-326q-1 0 -177 1t-177 -1q-11 0 -35.5 1t-38.5 1v-2q-20 -27 -20 -59zM874 455q0 9 5.5 14.5t13.5 5.5t14 -5.5t6 -14.5t-6 -15t-14 -6t-13.5 6t-5.5 15z" />
<glyph unicode="&#xfb43;" horiz-adv-x="968" d="M50 1289q6 16 24 14q47 -9 105.5 -13t98.5 -4t111.5 1t99.5 1q33 0 97.5 1t105 1.5t96 -2.5t101.5 -10q2 -2 4 -2q8 3 15.5 -1t6.5 -13q-16 -116 -23 -256.5t-7 -236.5t2 -265t2 -244q-1 -77 -2 -176.5t-1 -139t1 -117t4 -187.5q1 -11 -8.5 -15.5t-19 0t-9.5 15.5 q-3 109 -4 188t-1 123t0.5 139.5t0.5 181.5q0 81 -1 238.5t-1 254t7 232t22 248.5q-60 9 -122.5 11.5t-164 0.5t-123.5 -2q-29 0 -84.5 -1t-102 -1t-87.5 2q2 -2 2 -6q1 -43 11.5 -147.5t8.5 -161.5q-8 -233 -10 -354q28 -1 155 -11q9 0 30 -1.5t32.5 -1.5h28.5t32 2.5 t29 7.5q17 5 22 -11t-12 -22q-24 -8 -49.5 -9.5t-61.5 1t-51 2.5q-23 1 -80.5 5.5t-89.5 4.5q-14 0 -18 12q-4 8 -4 13q0 160 10 362q2 56 -9 159.5t-11 149.5q0 6 2 8q-43 3 -97 13q-18 3 -13 19zM506 967q0 20 18 20q8 0 14.5 -5.5t6.5 -14.5t-6.5 -15t-14.5 -6t-13 6 t-5 15z" />
<glyph unicode="&#xfb44;" horiz-adv-x="1353" d="M75 25q-5 9 0 18.5t17 9.5q175 -1 494.5 -7.5t521.5 -6.5h113q0 46 -6.5 276.5t-2.5 354.5q0 32 4 90t5 78q14 280 18 405h-139q-184 1 -449.5 8t-353.5 9q0 -559 31 -836l252 -6q141 -4 163 -8q11 -3 13.5 -13.5t-4.5 -18.5t-19 -5q-17 4 -153 8q-45 1 -134.5 3 t-134.5 3q-14 0 -18 16q-33 278 -33 857q-51 2 -168 2q-12 0 -17 9t0 18t17 9q26 0 95.5 -1t93.5 -1q118 -2 270.5 -6t280 -6.5t270.5 -3.5q104 -2 155 0q8 2 14 -4.5t5 -13.5l-19 -426q-1 -18 -4.5 -76.5t-3.5 -89.5q-4 -128 2 -371t6 -279q0 -8 -5.5 -13t-12.5 -5h-131 q-203 0 -522.5 6.5t-493.5 7.5q-12 0 -17 9zM793 905q0 9 5 15t13 6t14 -6t6 -15t-6 -14.5t-14 -5.5q-18 0 -18 20z" />
<glyph unicode="&#xfb46;" horiz-adv-x="1069" d="M61.5 34.5q3.5 9.5 12.5 10.5q17 1 112 -4q196 -6 197 -6q46 -4 229 6q43 0 129 4q116 8 144 8q18 -2 56.5 -2t55.5 4q-2 47 -44 121t-50 105q-15 55 -21 75.5t-19.5 56.5t-33.5 76q-56 114 -71 154q-24 55 -43 145q-42 145 -84 232q-26 57 -48 137.5t-40 126.5 q-4 11 3 18.5t17 6t15 -12.5q18 -46 39.5 -125.5t46.5 -134.5q53 -112 71 -190q19 19 43.5 35t60.5 34.5t50 26.5q47 28 71 143.5t-2 190.5q-4 11 3.5 18.5t17.5 6t14 -12.5q17 -59 14 -134t-31.5 -148t-70.5 -97q-9 -5 -48.5 -26t-63.5 -38t-41 -38l-4 -4q40 -142 43 -148 q6 -15 61 -128.5t72 -178.5q24 -91 34 -108q13 -20 28.5 -48t32 -66t15 -68t-25.5 -38q-17 -5 -63.5 -5.5t-59.5 1.5q-28 0 -144 -8q-86 -4 -129 -4q-183 -10 -231 -6q-28 2 -116.5 3.5t-135.5 8.5q-10 0 -53 -2q-9 -1 -13.5 8t-1 18.5zM608 270q0 9 5.5 15t13.5 6t14 -6 t6 -15t-6 -14.5t-14 -5.5t-13.5 5.5t-5.5 14.5z" />
<glyph unicode="&#xfb47;" horiz-adv-x="1343" d="M40.5 1297.5q4.5 9.5 16.5 9.5q135 4 305 0t295.5 -10t286 -2.5t301.5 20.5q46 6 62 -86.5t7 -212.5t-22 -220t-20 -118q-29 -85 -67.5 -145t-94 -102t-113.5 -69t-145 -55q-2 -1 -53.5 -16t-73 -23t-62.5 -24.5t-66.5 -34t-39.5 -37.5q-44 -54 -27 -139 q2 -12 -6.5 -18.5t-18 -3t-11.5 15.5q-10 58 5.5 105t37.5 74.5t76.5 55t83.5 37.5t95 30q33 10 48 15q83 25 138 49.5t107 63.5t88.5 95.5t63.5 137.5q29 83 36.5 292.5t-20.5 295.5h-2q-142 -17 -303 -20.5t-287.5 2.5t-296.5 10t-305 0q-12 0 -17.5 9t-1 18.5zM199 825 q-1 12 8 17.5t18.5 1t10.5 -16.5q6 -262 6 -606q0 -132 7 -311.5t7 -253.5q0 -12 -9 -17t-18.5 0t-9.5 17q0 74 -7 253.5t-7 311.5q0 344 -6 604zM793 905q0 9 5 15t13 6t14 -6t6 -15t-6 -14.5t-14 -5.5q-18 0 -18 20z" />
<glyph unicode="&#xfb49;" horiz-adv-x="1345" d="M33 1284q0 12 9.5 17t18.5 0t9 -17q-1 -57 6.5 -166t7.5 -160q0 -33 -1.5 -98t-1 -112.5t4.5 -94.5q18 -211 18 -364q1 -33 3 -88t2.5 -79t-0.5 -81q47 0 63 -2l72 -1h172t224 -0.5t231 -0.5t188.5 0.5t101.5 1.5q36 20 92 65q6 54 9 238.5t0 331.5q-1 29 -5 118t-4 113 t2 113q1 35 6 129t5 137q0 12 9 17t18.5 0t9.5 -17q0 -43 -5 -137t-6 -131q-1 -99 -2 -112.5t3 -111.5t5 -118q3 -149 0 -343.5t-10 -238.5q-1 -10 -55 -50t-64 -40q-37 -3 -513 -1.5t-488 3.5q-10 1 -26 1t-32.5 -0.5t-19.5 -0.5q-7 0 -12.5 6.5t-5.5 12.5q1 28 -4 266 q0 141 -19 360q-4 48 -4.5 96t1 113.5t1.5 99.5q0 51 -7.5 160t-6.5 166zM625 1284q0 12 9.5 17t18.5 0t9 -17q0 -51 6.5 -161t5.5 -169q0 -58 4 -171t4 -171q0 -12 -9 -17t-18.5 0t-9.5 17q0 59 -4 172t-4 170q1 59 -5.5 169.5t-6.5 160.5zM956 475q0 9 5.5 15t13.5 6 t14 -6t6 -15t-6 -14.5t-14 -5.5t-13.5 5.5t-5.5 14.5z" />
<glyph unicode="&#xfb4a;" horiz-adv-x="1474" d="M62 46.5q4 9.5 16 10.5q86 8 182 2q2 48 -8.5 136.5t-11.5 117.5q-6 185 -51 533.5t-52 417.5h-55q-12 1 -16.5 10.5t1 18t17.5 7.5q36 -2 137 1.5t103 3.5q79 -1 208 -6.5t177 -6.5q73 -2 221.5 2.5t212.5 3.5q21 -1 50.5 -1.5t104.5 -1.5t86 1q8 0 13.5 -5.5t5.5 -14.5 q-2 -50 -2.5 -142.5t-0.5 -159.5l1 -67q-1 -37 -1.5 -139.5t-2.5 -169.5q-4 -112 4 -338q1 -30 -2.5 -121.5t4.5 -126.5q1 -12 -8 -18t-18.5 -2t-10.5 16q-8 36 -4.5 128.5t2.5 121.5q-8 228 -4 342q4 117 4 307q-2 229 2 350l-225 5q-63 1 -212.5 -4t-221.5 -3 q-47 1 -176 6.5t-207 6.5q-28 0 -150 -4q7 -69 51.5 -417t50.5 -534q1 -29 12.5 -125.5t8.5 -150.5q0 -8 -7 -13t-14 -4q-111 10 -194 0q-12 -1 -18 8t-2 18.5zM1059 967q0 20 18 20q8 0 14.5 -5.5t6.5 -14.5t-6.5 -15t-14.5 -6t-13 6t-5 15z" />
<glyph unicode="&#xfb4b;" horiz-adv-x="475" d="M44.5 1283.5q-1.5 8.5 5.5 14.5t16 2q19 -7 45.5 -10t45.5 -3.5t51.5 0.5t43.5 1q37 3 89.5 2.5t86.5 -12.5q18 0 18 -14q-15 -103 -16.5 -221.5t2.5 -258t2 -221.5q-1 -54 -9 -191t-7 -235.5t18 -189.5q2 -9 -6 -15t-17.5 -4t-11.5 11q-17 93 -18 192.5t7 238t9 193.5 q1 79 -2.5 217t-2.5 254t14 217q-24 6 -52 7.5t-70 0t-53 -1.5q-8 0 -34 -0.5t-39 0t-34.5 1.5t-38.5 4.5t-32 9.5q-9 3 -10.5 11.5zM260 1520q0 9 5.5 14.5t13.5 5.5t14 -5.5t6 -14.5t-6 -15t-14 -6t-13.5 6t-5.5 15z" />
<glyph unicode="&#xfb4c;" horiz-adv-x="1542" d="M68.5 24.5q-3.5 7.5 0.5 15t15 7.5q111 -8 385.5 -4.5t386.5 0.5q187 -6 188 -6q112 -10 136 -10v6q16 140 16 311.5t-9 312.5t-13 312.5t4 312.5q-32 1 -71 -1t-65 -4t-74 -6.5t-67 -6.5q-101 -9 -137 -7q-26 0 -75 6t-58 7q-77 8 -261 2t-261 -2q-11 1 -15.5 8.5 t0 14.5t15.5 7q75 -3 261 3t261 -3q114 -14 145 -14q90 4 139 8q191 21 283 17q6 0 11 -4.5t5 -10.5q-12 -171 -2 -422t17.5 -421t-15.5 -420v-4q19 1 62.5 4t69.5 4.5t62 -0.5t65 -8q12 -4 12 -11q1 -1 2 -3t2 -3q9 -13 -7 -19q-15 -6 -24 5l-2 4q-59 7 -92.5 6t-93.5 -5.5 t-92 -4.5q-31 0 -86 4.5t-76 5.5q-88 3 -174 6q-102 2 -380 -2t-380 4q-10 1 -13.5 8.5zM114 1542q-2 10 5 17.5t18 3.5q40 -8 373 -5.5t373 7.5q40 4 227.5 -1t189.5 -5q12 0 17 -9.5t0 -18.5t-17 -9q-2 0 -188.5 5t-224.5 1q-50 -6 -380 -7.5t-380 7.5q-11 4 -13 14z" />
<glyph unicode="&#xfb4d;" horiz-adv-x="1314" d="M56.5 1282q-4.5 8 0 15.5t15.5 7.5q215 -6 645 2q39 0 125 2t136.5 2.5t122.5 -1t132 -7.5h4q14 -3 14 -17q-13 -509 17 -913q3 -71 12 -144q9 -72 -8 -100q-6 -11 -15.5 -20t-24.5 -15.5t-24.5 -10.5t-30.5 -7t-28.5 -4.5t-31.5 -3.5t-27 -2q-147 -14 -254 -19 q-260 -12 -390 -22q-86 -6 -161 -15q-40 -4 -54 -8q-3 -1 -8 -2t-8 -2q-6 -7 -15 -7t-15 7.5t-1 15.5q7 13 30.5 19.5t63.5 8.5l39 3q129 11 279 21q58 3 175.5 9t176.5 9q8 0 88 6q13 2 46 4t57 5.5t50.5 10.5t41.5 22t16 38q1 25 -4 68.5t-6 58.5q-2 26 -6 76t-6 76 q-9 110 -13 284q-3 301 2 541q-57 5 -126.5 6.5t-119.5 0.5t-130 -3t-121 -2q-430 -8 -645 -2q-11 0 -15.5 8zM73 1542q-2 10 5 17.5t18 3.5q40 -8 373 -5.5t373 7.5q40 4 228 -1t190 -5q12 0 17 -9.5t0 -18.5t-17 -9q-2 0 -189 5t-225 1q-50 -6 -380 -7.5t-380 7.5 q-11 4 -13 14z" />
<glyph unicode="&#xfb4e;" horiz-adv-x="1353" d="M73 1542q-2 10 5 17.5t18 3.5q40 -8 373 -5.5t373 7.5q40 4 228 -1t190 -5q12 0 17 -9.5t0 -18.5t-17 -9q-2 0 -189 5t-225 1q-50 -6 -380 -7.5t-380 7.5q-11 4 -13 14zM76.5 12q-4.5 8 0 15.5t15.5 7.5q572 -3 1143 -12q3 0 6 -3q-4 20 -5 43t-0.5 50t-0.5 41 q-1 29 -2 86t-2 86q-4 229 0 344q0 32 3.5 91t4.5 77q2 28 3 83t3 83q1 29 -2.5 78.5t-3 92t11.5 78.5q-83 2 -432 12t-538 13q0 -61 -1 -182.5t-0.5 -178.5t3 -150.5t9.5 -178.5t19 -182q18 -1 54.5 -2.5t54.5 -2.5q12 -1 87.5 -1.5t144 -2.5t85.5 -6q11 -3 13.5 -12 t-4 -15.5t-17.5 -3.5q-18 4 -88 6.5t-148.5 3t-89.5 1.5q-18 1 -54 2t-54 2q-19 0 -19 16v2q-12 99 -19.5 185.5t-10.5 182.5t-3.5 152t0.5 181.5t1 183.5q-49 2 -152 2q-11 0 -15.5 8t0 16.5t15.5 8.5q224 -2 633.5 -14t548.5 -15h6h4q16 0 17.5 -14t-11.5 -17 q-16 -48 -12 -133q4 -94 2 -143q0 -62 -6.5 -178t-7.5 -142q-3 -184 2 -331q0 -58 4 -172q1 -14 1 -45.5t1.5 -55t5.5 -43.5q3 -12 -10 -17t-21 3q-6 -6 -14 -6q-191 4 -1143 14q-11 0 -15.5 8z" />
<glyph unicode="&#xfb4f;" horiz-adv-x="1728" d="M94 1292q9 22 4 116.5t-4 121.5q1 12 10.5 16t18.5 -2t8 -18q-2 -31 2.5 -108.5t-0.5 -108.5q14 0 55.5 -3.5t61.5 -2.5q17 0 46 4t47 4t24 -8q1 0 1.5 -1.5l1 -3t1.5 -2.5q5 -73 98 -155q95 -80 215 -140q97 -51 284.5 -130t239.5 -103q10 -5 31 -14.5t31 -14.5 q3 99 1 179t1.5 179t17.5 177q1 9 10 11t17 -4t6 -15q-17 -106 -17 -271.5t-1 -271.5q106 -51 179 -106.5t109 -131.5q21 -51 31 -92q2 -7 14.5 -53t16.5 -70q22 -116 22 -254q0 -15 -17.5 -15t-17.5 15q0 171 -28 283q-3 12 -10 41.5t-11.5 46t-12 40.5t-17 44t-21.5 37 q-35 50 -86.5 87.5t-128.5 78.5q-120 62 -246 117q-29 12 -126 52.5t-141.5 60t-116.5 55t-128 69.5q-153 97 -202 176q-8 -134 -11 -239q-1 -47 -2 -209.5t-2 -235.5q-3 -299 -20 -364q-3 -10 -7.5 -18.5t-13 -16t-13.5 -11.5t-18 -10t-17 -8t-20 -7.5t-18 -6.5 q-35 -15 -42.5 -23.5t-6.5 -31.5q1 -12 -8 -18t-18.5 -2.5t-10.5 15.5q-3 39 19 62.5t50 31t55 20t32 32.5q17 60 20 358q1 73 2 235.5t2 209.5q2 140 15 301q-14 1 -83 -2t-81 4q-21 3 -39.5 1t-29.5 2t-7 19z" />
</font>
</defs>
</svg>
