<svg width="20" height="20" viewBox="0 0 20 20" fill="none" xmlns="http://www.w3.org/2000/svg">
    <path fill-rule="evenodd" clip-rule="evenodd"
          d="M5.0003 17.98H15.0003V10.98C15.0003 10.428 15.4483 9.98 16.0003 9.98H18.0003L10.0013 2.001L1.9993 9.981L4.0003 9.98C4.5523 9.98 5.0003 10.428 5.0003 10.98V17.98ZM16.0003 19.98H4.0003C3.4483 19.98 3.0003 19.532 3.0003 18.98V11.98H2.0003C1.1893 11.98 0.4643 11.496 0.1533 10.746C-0.1577 9.995 0.0132997 9.139 0.5863 8.566L8.5873 0.584C8.9643 0.208 9.4663 0 10.0003 0C10.5343 0 11.0363 0.208 11.4143 0.585L19.4133 8.565C19.9873 9.139 20.1583 9.995 19.8483 10.744C19.5393 11.496 18.8133 11.98 18.0003 11.98H17.0003V18.98C17.0003 19.532 16.5523 19.98 16.0003 19.98Z"
          fill="#FFFEF8"/>
</svg>
