<svg width="20" height="20" viewBox="0 0 20 20" fill="none" xmlns="http://www.w3.org/2000/svg">
    <path fill-rule="evenodd" clip-rule="evenodd"
          d="M10 2C5.589 2 2 5.589 2 10C2 14.411 5.589 18 10 18C14.411 18 18 14.411 18 10C18 5.589 14.411 2 10 2ZM10 20C4.486 20 0 15.514 0 10C0 4.486 4.486 0 10 0C15.514 0 20 4.486 20 10C20 15.514 15.514 20 10 20Z"
          fill="#1B418A"/>
    <path fill-rule="evenodd" clip-rule="evenodd"
          d="M10.335 10.6709C10.23 10.7239 10.114 10.7499 10 10.7499C9.885 10.7499 9.77 10.7239 9.664 10.6709L5 8.33887V11.9999C5 13.1049 5.895 13.9999 7 13.9999H13C14.104 13.9999 15 13.1049 15 11.9999V8.33887L10.335 10.6709Z"
          fill="#1B418A"/>
    <path fill-rule="evenodd" clip-rule="evenodd"
          d="M10.0001 9.16151L14.6291 6.84651C14.2671 6.33651 13.6741 5.99951 13.0001 5.99951H7.00009C6.32609 5.99951 5.73309 6.33651 5.37109 6.84651L10.0001 9.16151Z"
          fill="#1B418A"/>
</svg>
