<svg width="22" height="18" viewBox="0 0 22 18" fill="none" xmlns="http://www.w3.org/2000/svg">
    <path fill-rule="evenodd" clip-rule="evenodd"
          d="M11 8.92275L3.439 5.89775L11 2.11775L18.561 5.89775L11 8.92275ZM16 12.5627L15.025 13.0497C12.504 14.3108 9.495 14.3108 6.975 13.0497L6 12.5627V9.07675L10.628 10.9288C10.748 10.9767 10.874 10.9998 11 10.9998C11.126 10.9998 11.252 10.9767 11.372 10.9288L16 9.07675V12.5627ZM21.447 5.10575L11.447 0.10575C11.166 -0.03525 10.834 -0.03525 10.553 0.10575L0.553 5.10575C0.352 5.20575 0.198 5.37875 0.107 5.56875C0.047 5.68975 0 5.89775 0 5.99975V11.7647C0 12.3157 0.448 12.7647 1 12.7647C1.552 12.7647 2 12.3157 2 11.7647V7.47775L4 8.27675V13.1807C4 13.5597 4.214 13.9047 4.553 14.0747C6.272 14.9338 8.039 15.9937 11 15.9937C13.961 15.9937 15.729 14.9338 17.447 14.0747C17.786 13.9047 18 13.5597 18 13.1807V8.27675L21.372 6.92875C21.737 6.78175 21.983 6.43575 21.999 6.04175C22.016 5.64775 21.799 5.28175 21.447 5.10575Z"
          fill="#FFFEF8"/>
    <path fill-rule="evenodd" clip-rule="evenodd"
          d="M1 14C0.448 14 0 14.448 0 15V17C0 17.553 0.448 18 1 18C1.552 18 2 17.553 2 17V15C2 14.448 1.552 14 1 14Z"
          fill="#FFFEF8"/>
</svg>
