<svg width="24" height="22" viewBox="0 0 24 22" fill="none" xmlns="http://www.w3.org/2000/svg">
    <path fill-rule="evenodd" clip-rule="evenodd"
          d="M15 14C14.848 14 14.694 13.965 14.553 13.895C14.214 13.726 14 13.379 14 13V11H13V9H15C15.552 9 16 9.448 16 10V11L18.4 9.2C18.573 9.07 18.784 9 19 9H22V2H12V5H10V2C10 0.896 10.897 0 12 0H22C23.103 0 24 0.896 24 2V9C24 10.103 23.103 11 22 11H19.333L15.6 13.8C15.423 13.932 15.212 14 15 14Z"
          fill="#FFFEF8"/>
    <path fill-rule="evenodd" clip-rule="evenodd"
          d="M8 8C6.897 8 6 8.896 6 10C6 11.103 6.897 12 8 12C9.103 12 10 11.103 10 10C10 8.896 9.103 8 8 8ZM8 14C5.794 14 4 12.206 4 10C4 7.794 5.794 6 8 6C10.206 6 12 7.794 12 10C12 12.206 10.206 14 8 14Z"
          fill="#FFFEF8"/>
    <path fill-rule="evenodd" clip-rule="evenodd"
          d="M2.159 20H13.842C13.244 18.192 11.008 17 8 17C4.992 17 2.757 18.192 2.159 20ZM16 22H0V21C0 17.467 3.29 15 8 15C12.711 15 16 17.467 16 21V22Z"
          fill="#FFFEF8"/>
</svg>
