<svg width="22" height="19" viewBox="0 0 22 19" fill="none" xmlns="http://www.w3.org/2000/svg">
    <path fill-rule="evenodd" clip-rule="evenodd"
          d="M20 9H15C15 7.898 14.103 7 13 7H9C7.897 7 7 7.898 7 9H2V7C2 6.448 2.449 6 3 6H19C19.551 6 20 6.448 20 7V9ZM9 11V9H13L12.997 11H9ZM19 16C19 16.552 18.551 17 18 17H4C3.449 17 3 16.552 3 16V11H7C7 12.103 7.897 13 9 13H13C14.103 13 15 12.103 15 11H19V16ZM8 2H14V4H8V2ZM19 4H16V2C16 0.898 15.103 0 14 0H8C6.897 0 6 0.898 6 2V4H3C1.346 4 0 5.346 0 7V11H1V16C1 17.654 2.346 19 4 19H18C19.654 19 21 17.654 21 16V11H22V7C22 5.346 20.654 4 19 4Z"
          fill="#FFFEF8"/>
</svg>
